P3
80 40
255
255 0 0 255 255 255 255 255 255 255 255 255 255 255 255 255 0 0 255 255 255 0 0 255 0 0 255 255 255 255 255 255 255 255 255 255 0 0 255 0 0 255 255 255 255 255 255 255 255 255 255 255 255 255 0 255 0 255 255 255 255 255 255 255 255 255 0 255 0 0 255 0 255 255 255 255 255 255 0 255 0 255 255 255 255 0 0 255 255 255 255 255 255 255 0 0 255 255 255 255 255 255 255 255 255 255 0 0 255 255 255 255 255 255 255 0 0 255 255 255 255 255 255 255 255 255 255 0 0 255 255 255 255 255 255 255 0 0 255 255 255 255 255 255 255 255 255 255 0 0 255 255 255 255 255 255 255 0 0 255 255 255 255 255 255 0 255 0 255 255 255 255 255 255 255 255 255 0 255 0 255 255 255 255 255 255 255 255 255 0 255 0 255 255 255 255 255 255 0 0 255 255 255 255 255 255 255 255 255 255 255 255 255 0 0 255 255 255 255 255 255 255 255 255 255 255 0 0 255 255 255 255 255 255 255 255 255 255 255 255 
255 255 255 255 255 255 255 255 255 255 255 255 255 255 255 255 0 0 255 0 0 255 255 255 255 255 255 255 255 255 255 255 255 255 0 0 0 0 255 0 0 255 255 255 255 255 255 255 255 255 255 0 0 255 255 255 255 255 255 255 255 255 255 0 0 255 255 255 255 255 255 255 255 255 255 255 255 255 0 255 0 255 255 255 255 255 255 255 255 255 0 255 0 255 255 255 255 255 255 255 255 255 0 255 0 255 255 255 255 255 255 0 255 0 255 255 255 255 255 255 0 255 0 0 255 0 255 255 255 255 255 255 0 255 0 255 255 255 255 255 255 0 255 0 0 255 0 255 255 255 255 255 255 0 255 0 255 255 255 255 255 255 255 255 255 0 255 0 255 255 255 0 0 255 0 0 255 255 255 255 255 255 255 0 0 255 0 0 255 255 255 255 255 255 255 255 255 255 0 0 255 255 255 255 255 255 255 255 0 0 255 255 255 255 255 255 255 255 255 255 255 255 255 0 0 255 0 0 255 255 255 255 255 255 255 255 255 0 255 0 
255 255 255 255 255 255 255 255 255 255 255 255 0 255 0 255 255 255 255 255 255 255 255 255 255 255 255 255 255 255 255 255 255 255 0 0 255 255 255 255 255 255 255 255 255 255 0 0 255 0 0 255 255 255 255 255 255 255 255 255 255 0 0 0 0 255 255 255 255 255 255 255 255 255 255 0 0 255 255 255 255 255 255 255 255 255 255 0 0 255 255 255 255 255 255 255 0 0 255 0 0 255 255 255 255 255 255 255 0 0 255 255 255 255 255 255 255 0 0 255 255 255 255 255 255 255 255 255 255 0 0 255 255 255 255 255 255 255 0 0 255 255 255 255 255 255 255 255 255 255 0 0 255 255 255 255 255 255 255 0 0 255 0 0 255 255 255 255 255 255 255 0 0 255 0 0 255 255 255 255 255 0 0 255 255 255 255 255 255 255 255 255 255 0 0 255 0 0 255 255 255 255 255 255 255 255 255 255 0 0 255 255 255 255 255 255 0 255 0 0 255 0 255 255 255 255 255 255 255 255 255 0 255 0 0 255 0 255 255 255 
255 255 255 255 255 255 0 0 255 0 0 255 255 255 255 255 255 255 255 255 255 255 255 255 255 255 255 0 255 0 0 255 0 255 255 255 255 255 255 255 255 255 0 255 0 0 255 0 255 255 255 255 255 255 255 255 255 255 255 255 255 0 0 255 255 255 255 255 255 255 255 255 255 0 0 255 255 255 255 255 255 255 255 255 255 0 0 255 255 255 255 255 255 255 0 0 255 255 255 255 255 255 255 255 255 255 0 0 255 255 255 255 255 255 255 0 0 255 255 255 255 255 255 255 255 255 255 0 0 255 255 255 255 255 255 255 0 0 255 255 255 255 255 255 255 255 255 255 0 0 255 255 255 255 255 255 255 0 0 255 255 255 255 255 255 255 255 255 255 0 0 255 255 255 255 255 255 255 255 255 255 0 0 255 255 255 255 255 255 0 255 0 255 255 255 255 255 255 255 255 255 0 255 0 0 255 0 255 255 255 255 255 255 255 255 255 0 255 0 0 255 0 255 255 255 0 0 255 0 0 255 255 255 255 255 255 255 255 255 255 
255 0 0 255 0 0 255 255 255 0 0 255 255 255 255 255 255 255 255 255 255 255 255 255 0 0 255 255 255 255 255 255 255 255 255 255 255 255 255 0 0 255 255 255 255 0 255 0 255 255 255 255 255 255 255 255 255 0 255 0 255 255 255 255 255 255 255 255 255 0 255 0 255 255 255 255 255 255 0 255 0 0 255 0 255 255 255 255 255 255 0 255 0 255 0 0 255 255 255 255 255 255 255 255 255 255 0 0 255 255 255 255 255 255 255 0 0 255 255 255 255 255 255 255 255 255 255 0 0 255 255 255 255 255 255 255 0 0 255 255 255 255 255 255 255 255 255 255 0 0 255 255 255 0 255 0 255 255 255 255 255 255 255 255 255 0 255 0 255 255 255 255 255 255 0 255 0 0 255 0 255 255 255 255 255 255 0 255 0 0 255 0 255 255 255 255 255 255 0 0 255 255 255 255 255 255 255 255 255 255 0 0 255 0 0 255 255 255 255 255 255 255 255 255 255 0 0 255 0 0 255 255 255 255 255 255 255 255 0 0 
255 0 0 255 0 0 255 255 255 255 255 255 255 255 255 255 255 255 255 0 0 255 0 0 255 255 255 255 255 255 255 255 255 255 0 0 255 255 255 0 0 255 255 255 255 255 255 255 255 255 255 0 0 255 0 0 255 255 255 255 255 255 255 0 0 255 0 0 255 255 255 255 255 255 255 0 0 255 255 255 255 0 255 0 255 255 255 255 255 255 0 255 0 255 255 255 255 255 255 255 255 255 0 255 0 255 255 255 255 255 255 0 255 0 255 255 255 255 255 255 0 255 0 0 255 0 255 255 255 255 255 255 0 255 0 255 255 255 255 255 255 0 255 0 0 255 0 255 255 255 255 255 255 0 255 0 255 255 255 255 255 255 0 0 255 255 255 255 255 255 255 0 0 255 255 255 255 255 255 255 255 255 255 0 0 255 255 255 255 255 255 255 255 255 255 0 0 255 0 0 255 255 255 255 255 255 255 255 0 0 255 255 255 255 255 255 255 255 255 255 0 0 255 0 0 255 255 255 255 255 255 255 255 255 255 255 255 255 0 0 
255 255 255 255 255 255 255 255 255 255 255 255 0 255 0 0 255 0 255 255 255 255 255 255 255 255 255 255 255 255 255 255 255 255 0 0 255 0 0 255 255 255 255 255 255 255 255 255 255 0 0 255 255 255 255 255 255 255 255 255 255 0 0 255 255 255 255 255 255 255 255 255 255 255 255 0 0 255 0 0 255 255 255 255 255 255 255 0 0 255 255 255 255 255 255 255 255 255 255 0 0 255 255 255 255 255 255 255 0 0 255 255 255 255 255 255 255 0 0 255 255 255 255 255 255 255 255 255 255 0 0 255 255 255 255 255 255 255 0 0 255 255 255 255 255 255 255 255 255 255 0 0 255 255 255 255 255 255 255 0 0 255 255 255 255 255 255 255 255 255 255 0 0 255 255 255 255 255 255 255 255 0 0 255 255 255 255 255 255 255 255 255 255 0 0 255 255 255 255 255 255 255 255 255 255 0 0 255 0 0 255 255 255 255 255 255 255 255 255 255 255 255 255 255 255 255 255 255 255 255 255 0 255 0 0 255 0 255 255 255 
255 255 255 255 255 255 0 0 255 0 0 255 255 255 255 0 255 0 255 255 255 255 255 255 255 255 255 255 255 255 0 255 0 255 255 255 255 255 255 255 255 255 0 255 0 0 255 0 255 255 255 255 255 255 255 255 255 0 255 0 255 0 0 255 0 0 255 255 255 255 255 255 255 0 0 255 255 255 255 255 255 255 255 255 255 0 0 255 255 255 255 255 255 255 0 0 255 0 0 255 255 255 255 255 255 255 0 0 255 255 255 255 255 255 255 0 0 255 255 255 255 255 255 255 255 255 255 0 0 255 255 255 255 255 255 255 0 0 255 255 255 255 255 255 255 0 0 255 0 0 255 255 255 255 255 255 255 0 0 255 255 255 255 255 255 255 255 255 255 0 0 255 255 255 255 255 255 255 0 0 255 0 0 255 255 255 0 255 0 0 255 0 255 255 255 255 255 255 255 255 255 0 255 0 255 255 255 255 255 255 255 255 255 0 255 0 0 255 0 255 255 255 255 255 255 255 255 255 0 0 255 255 255 255 255 255 255 255 255 255 
255 255 255 255 255 255 255 255 255 0 0 255 0 0 255 255 255 255 255 255 255 255 255 255 0 0 255 0 0 255 255 255 255 255 255 255 255 255 255 0 0 255 0 0 255 255 255 255 255 255 255 255 255 255 255 255 255 0 255 0 255 255 255 255 255 255 255 255 255 0 255 0 255 255 255 255 255 255 255 255 255 0 255 0 255 255 255 255 255 255 0 255 0 255 255 255 255 255 255 255 255 255 0 255 0 255 255 255 255 255 255 0 255 0 255 255 255 255 255 255 0 255 0 0 255 0 255 255 255 255 255 255 0 255 0 255 255 255 255 255 255 0 255 0 255 255 255 255 255 255 255 255 255 0 255 0 255 255 255 255 255 255 0 255 0 0 255 0 255 255 255 255 255 255 0 255 0 255 255 255 255 255 255 255 255 255 0 255 0 0 255 0 255 255 255 0 0 255 255 255 255 255 255 255 255 255 255 255 255 255 0 0 255 255 255 255 255 255 255 255 255 255 255 255 255 0 0 255 255 255 255 255 255 255 255 255 255 255 255 255 
255 255 255 255 0 0 255 0 0 255 255 255 255 255 255 255 255 255 255 0 0 255 0 0 255 255 255 255 255 255 255 255 255 255 255 255 255 255 255 0 0 255 0 0 255 255 255 255 255 255 255 255 255 255 0 0 255 255 255 255 255 255 255 255 255 255 0 0 255 255 255 255 255 255 255 0 0 255 0 0 255 255 255 255 255 255 255 0 0 255 255 255 255 255 255 255 255 255 255 0 0 255 255 255 255 255 255 255 0 0 255 255 255 255 255 255 255 0 0 255 255 255 255 255 255 255 255 255 255 0 0 255 255 255 255 255 255 255 0 0 255 255 255 255 255 255 255 255 255 255 0 0 255 255 255 255 255 255 255 0 0 255 255 255 255 255 255 255 255 255 255 0 0 255 255 255 255 255 255 255 255 255 255 0 0 255 255 255 255 255 255 255 255 255 255 0 0 255 255 255 255 255 255 255 255 255 255 255 255 255 255 255 255 255 255 255 255 255 255 255 0 0 255 0 0 255 255 255 255 255 255 255 255 255 255 0 0 255 0 0 
0 255 0 255 255 255 255 255 255 255 255 255 255 255 255 0 255 0 0 255 0 255 255 255 255 255 255 255 255 255 255 255 255 255 255 255 255 0 0 255 255 255 255 255 255 255 255 255 255 0 0 255 0 0 255 255 255 255 255 255 255 0 0 255 0 0 255 255 255 255 255 255 255 0 0 255 0 0 255 255 255 255 255 255 255 0 0 255 255 255 255 255 255 255 0 0 255 0 0 0 0 255 255 255 255 255 255 255 0 0 255 255 255 255 255 255 255 0 0 255 255 255 255 255 255 255 255 255 255 0 0 255 255 255 255 255 255 255 0 0 255 255 255 255 255 0 0 255 0 0 255 255 255 255 255 255 255 0 0 255 255 255 255 255 255 255 0 0 255 0 0 255 255 255 255 255 255 255 0 0 255 0 0 255 255 255 255 255 255 255 0 0 255 0 0 204 204 204 204 204 204 204 204 204 204 204 204 204 204 204 204 204 204 204 204 204 204 204 204 255 255 255 255 255 255 255 255 255 0 255 0 0 255 0 255 255 255 255 255 255 
255 255 255 255 255 255 255 255 255 0 0 255 255 255 255 0 255 0 0 255 0 255 255 255 255 255 255 255 255 255 0 255 0 0 255 0 255 255 255 255 255 255 255 255 255 0 255 0 255 255 255 255 255 255 255 255 255 0 255 0 255 255 255 255 255 255 255 255 255 0 255 0 255 255 255 255 255 255 255 255 255 255 255 255 255 0 0 255 255 255 255 255 255 255 0 0 255 0 0 255 255 255 255 255 255 255 0 0 255 255 255 255 255 255 255 0 0 255 255 255 255 255 255 255 255 255 255 0 0 255 255 255 255 255 255 255 0 0 255 255 255 255 255 255 255 0 0 255 0 0 255 255 255 255 255 255 255 0 0 255 255 255 0 255 0 204 204 204 204 204 204 98 40 0 204 204 204 204 204 204 204 204 204 204 204 204 204 204 204 204 204 204 204 204 204 204 204 204 204 204 204 204 204 204 204 204 204 204 204 204 204 204 204 204 204 204 204 204 204 204 204 204 255 255 255 255 255 255 0 255 0 255 255 255 255 255 255 255 255 255 
255 255 255 255 255 255 255 255 255 0 0 255 0 0 255 255 255 255 255 255 255 255 255 255 255 255 255 0 0 255 255 255 255 255 255 255 255 255 255 0 0 255 0 0 255 255 255 255 255 255 255 255 255 255 0 0 255 255 255 255 255 255 255 255 255 255 255 255 255 0 255 0 255 255 255 255 255 255 255 255 255 0 255 0 255 255 255 255 255 255 0 255 0 0 255 0 255 255 255 255 255 255 0 255 0 255 255 255 255 255 255 0 255 0 255 255 255 255 255 255 0 255 0 0 255 0 255 255 255 255 255 255 255 255 255 255 0 0 255 255 255 0 255 0 255 255 255 255 255 255 255 255 255 204 204 204 204 204 204 204 204 204 204 204 204 204 204 204 204 204 204 201 72 121 204 204 204 204 204 204 204 204 204 204 204 204 204 204 204 204 204 204 204 204 204 204 204 204 204 204 204 204 204 204 204 204 204 204 204 204 204 204 204 204 204 204 204 204 204 204 204 204 204 204 204 0 0 255 255 255 255 255 255 255 255 255 255 255 255 255 
255 255 255 255 0 0 255 0 0 255 255 255 255 255 255 255 255 255 255 255 255 255 0 0 255 0 0 255 255 255 255 255 255 255 255 255 255 0 0 255 255 255 255 255 255 255 255 255 255 0 0 255 255 255 0 0 255 255 255 255 255 255 255 255 255 255 0 0 255 255 255 255 255 255 255 255 255 255 0 0 255 255 255 255 255 255 255 0 0 255 255 255 255 255 255 255 255 255 255 0 0 255 255 255 255 255 255 255 0 0 255 255 255 255 255 255 255 0 0 255 255 255 255 255 255 255 255 0 0 255 255 255 255 255 255 255 0 0 0 0 255 255 255 255 255 255 255 0 0 255 0 0 255 255 255 255 204 204 204 204 204 204 204 204 204 204 204 204 204 204 204 20 1 0 155 90 64 0 0 89 0 0 120 156 92 155 204 204 204 204 204 204 204 204 204 204 204 204 204 204 204 204 204 204 204 204 204 204 204 204 204 204 204 204 204 204 204 204 204 204 204 204 204 204 204 204 204 204 255 255 255 255 255 255 255 0 0 255 0 0 
0 255 0 255 255 255 255 255 255 255 255 255 255 255 255 0 255 0 0 255 0 255 255 255 255 255 255 255 255 255 0 255 0 255 255 255 255 0 0 255 255 255 255 255 255 255 255 255 255 0 0 255 0 0 255 255 255 255 255 255 255 255 255 0 0 178 0 0 196 0 0 198 165 121 191 0 121 0 255 255 255 255 255 255 255 0 0 255 255 255 255 255 255 255 255 255 255 0 0 255 255 255 255 255 255 255 0 0 255 255 255 255 255 255 255 0 0 255 255 255 0 255 0 0 255 0 255 255 255 255 255 255 255 255 255 255 0 0 255 255 255 255 255 255 255 255 255 255 255 255 255 255 255 255 255 255 204 204 204 204 204 204 204 204 204 204 204 204 204 204 204 203 55 107 168 82 57 177 87 82 186 86 112 181 84 145 139 81 188 204 204 204 204 204 204 204 204 204 163 163 0 163 163 0 163 163 0 204 204 204 204 204 204 204 204 204 204 204 204 204 204 204 204 204 204 204 204 204 0 255 0 0 255 0 255 255 255 255 255 255 
255 255 255 255 255 255 255 255 255 255 255 255 255 255 255 0 255 0 0 255 0 255 255 255 255 255 255 255 255 255 0 255 0 0 255 0 255 255 255 255 255 255 255 255 255 0 255 0 255 255 255 255 255 255 255 255 255 0 255 0 91 111 209 0 0 0 0 0 225 0 0 224 173 111 218 190 111 208 205 112 191 218 113 161 255 255 255 255 255 255 0 255 0 0 255 0 255 255 255 255 255 255 0 255 0 255 255 255 255 255 255 0 255 0 255 255 255 255 255 255 255 255 255 255 255 255 0 255 0 255 255 255 255 0 0 255 255 255 255 255 255 255 255 255 0 0 255 255 255 255 255 255 255 0 255 0 255 255 255 204 204 204 204 204 204 204 204 204 204 204 204 0 46 0 163 163 0 156 57 0 197 0 0 194 76 140 172 74 176 204 204 204 204 204 204 0 163 0 163 163 0 163 163 0 131 131 0 163 163 0 204 204 204 204 204 204 204 204 204 204 204 204 204 204 204 204 204 204 204 204 204 0 255 0 255 255 255 255 255 255 
255 255 255 255 255 255 255 255 255 0 0 255 0 0 255 255 255 255 255 255 255 255 255 255 255 255 255 0 0 255 255 255 255 255 255 255 255 255 255 255 255 255 0 0 255 255 255 255 255 255 255 255 255 255 0 0 255 74 102 213 100 102 231 121 102 238 141 102 240 160 0 0 0 102 0 194 102 224 168 82 0 0 204 0 204 0 0 204 0 0 204 204 0 250 65 162 255 255 255 0 0 255 255 255 255 255 255 255 0 0 255 255 255 255 255 255 255 255 255 255 255 255 255 255 255 255 255 255 255 255 255 255 255 255 255 255 255 255 255 255 255 204 204 0 204 0 0 204 204 0 204 204 0 255 255 255 255 255 255 204 204 204 204 204 204 204 204 204 154 50 33 117 22 0 0 163 0 0 0 0 202 0 0 128 43 0 0 0 171 204 204 204 204 204 204 0 0 0 163 163 0 204 204 204 204 204 204 204 0 0 204 204 204 204 204 204 204 204 204 204 204 204 204 204 204 204 204 204 204 204 204 204 204 204 255 255 255 255 255 255 
255 255 255 255 0 0 255 0 0 255 255 255 255 255 255 255 255 255 255 255 255 255 0 0 255 0 0 255 255 255 255 255 255 255 255 255 255 0 0 255 0 0 255 255 255 255 255 255 255 255 255 255 0 0 45 94 191 0 93 0 104 93 243 125 93 248 144 93 249 130 74 0 0 0 241 197 93 233 204 204 0 255 255 255 204 204 0 204 204 0 203 57 0 255 72 151 127 36 0 255 255 255 255 255 255 255 0 0 255 255 255 255 255 255 0 0 0 255 255 255 255 255 255 255 255 255 255 255 255 255 0 0 255 0 0 255 255 255 255 0 0 255 255 255 204 204 0 0 0 0 204 204 0 204 204 0 0 163 0 255 255 255 204 204 204 204 204 204 0 31 0 36 1 0 163 163 0 196 54 77 202 53 110 103 30 0 147 46 0 204 204 204 204 204 204 204 204 204 204 204 204 0 0 204 204 204 204 204 204 204 204 204 204 204 204 204 204 204 204 204 204 204 204 204 204 204 204 204 204 204 204 204 204 204 204 204 204 255 0 0 
0 255 0 255 255 255 255 255 255 255 255 255 255 255 255 0 255 0 0 255 0 255 255 255 255 255 255 255 255 255 0 255 0 0 255 0 255 255 255 255 255 255 255 255 255 0 255 0 0 255 0 255 255 255 54 0 0 0 0 238 106 85 249 127 85 253 146 85 254 164 0 0 145 68 0 158 0 0 21 0 0 204 204 0 255 255 255 255 255 255 255 255 255 0 75 0 202 59 0 238 72 201 0 255 0 255 255 255 0 255 0 255 255 255 255 0 0 0 255 0 0 0 255 255 255 255 255 255 255 0 255 0 0 255 0 255 0 0 255 0 0 255 255 255 204 204 0 0 0 0 204 204 0 204 204 0 204 0 0 163 163 0 204 204 204 204 204 204 204 204 204 204 204 204 0 163 0 151 36 0 104 104 0 127 32 0 179 48 169 204 204 204 204 204 204 204 204 204 204 204 204 204 204 204 204 0 0 0 0 204 204 204 204 204 204 204 204 204 204 204 204 204 204 204 204 204 204 204 204 204 204 204 204 204 204 204 204 204 204 204 
0 255 0 255 255 255 255 255 255 255 255 255 255 255 255 0 255 0 0 255 0 255 255 255 255 255 255 255 255 255 0 255 0 0 255 0 255 255 255 255 255 255 255 255 255 0 255 0 0 255 0 255 255 255 56 76 219 84 76 241 0 0 250 102 61 0 117 61 0 0 0 0 145 61 0 159 61 0 255 255 255 255 255 255 0 255 0 0 255 0 0 255 0 255 0 0 203 61 0 193 0 0 204 204 0 204 204 0 204 204 0 0 204 0 0 0 255 0 0 255 255 0 0 255 255 255 0 255 0 255 255 255 255 255 255 0 0 0 255 255 255 204 204 0 255 255 255 0 204 0 204 204 0 204 204 0 0 204 0 163 163 0 7 7 0 204 204 204 204 204 204 204 204 204 120 32 0 149 48 0 116 22 0 0 25 0 130 31 0 204 204 204 204 204 204 204 204 204 204 204 204 204 204 204 204 0 0 204 204 204 204 204 204 204 204 204 204 204 204 204 204 204 204 204 204 204 204 204 204 204 204 204 204 204 204 204 204 204 204 204 
255 255 255 255 255 255 255 255 255 0 0 255 0 0 255 255 255 255 255 255 255 255 255 255 255 255 255 0 0 255 255 255 255 255 255 255 255 255 255 255 255 255 0 0 255 255 255 255 255 255 255 255 255 255 54 68 214 66 0 0 85 54 0 101 54 0 116 0 0 164 0 0 181 68 246 158 54 0 255 255 255 255 255 255 0 255 0 0 255 0 0 255 0 255 255 255 253 0 0 255 255 255 255 255 255 255 255 255 0 0 255 255 255 255 255 255 255 204 204 0 204 204 0 255 255 255 204 204 0 255 0 0 204 204 0 255 255 255 204 0 0 204 204 0 204 204 0 255 255 255 204 0 0 255 255 255 255 0 0 0 0 255 255 255 255 163 163 0 163 163 0 0 0 0 163 163 0 129 24 0 89 16 0 163 0 0 163 163 0 163 163 0 163 163 0 163 163 0 7 7 0 163 163 0 163 163 0 163 163 0 163 163 0 0 163 0 163 163 0 0 163 0 163 163 0 163 163 0 163 163 0 204 204 204 204 204 204 204 204 204 
255 255 255 255 0 0 255 0 0 255 255 255 255 255 255 255 255 255 255 255 255 255 0 0 255 0 0 255 255 255 255 255 255 255 255 255 255 0 0 255 0 0 255 255 255 255 255 255 255 255 255 255 0 0 36 0 0 64 0 0 83 47 0 100 0 0 0 47 0 130 47 0 144 47 0 157 47 0 255 255 255 204 0 0 255 0 0 255 255 255 254 81 123 255 81 151 159 52 0 255 255 255 255 255 255 255 0 0 255 255 255 255 255 255 255 0 0 255 255 255 255 255 255 255 255 255 255 0 0 255 255 255 204 204 0 204 0 0 204 204 0 204 204 0 0 0 255 255 255 255 255 255 255 255 255 255 255 0 0 255 255 255 255 255 255 255 0 0 163 163 0 163 163 0 163 163 0 163 163 0 163 163 0 163 163 0 163 163 0 0 163 0 163 163 0 163 163 0 163 163 0 0 163 0 163 163 0 163 163 0 163 163 0 163 163 0 163 163 0 163 163 0 163 163 0 163 163 0 0 0 0 163 163 0 163 163 0 163 163 0 
0 255 0 255 255 255 255 255 255 255 255 255 255 255 255 0 255 0 0 255 0 255 255 255 255 255 255 255 255 255 0 255 0 0 255 0 255 255 255 255 255 255 255 255 255 0 255 0 255 255 255 255 255 255 255 255 255 74 50 213 80 40 0 97 40 0 0 0 0 128 40 0 177 51 233 0 50 0 168 0 0 255 255 255 0 0 255 255 255 255 255 255 255 250 88 162 255 255 255 255 255 255 0 255 0 255 255 255 255 255 255 0 255 0 255 255 255 255 255 255 0 255 0 0 255 0 255 255 255 255 255 255 0 255 0 255 255 255 255 255 255 0 255 0 255 255 255 204 204 0 255 255 255 0 255 0 255 255 255 255 255 255 0 255 0 255 255 255 0 163 0 163 163 0 0 0 0 42 1 0 87 5 0 92 16 0 163 163 0 163 163 0 0 163 0 0 163 0 0 163 0 163 163 0 0 163 0 163 163 0 0 163 0 0 0 0 0 0 0 0 163 0 163 163 0 0 163 0 163 163 0 0 163 0 163 163 0 163 163 0 
0 255 0 255 255 255 255 255 255 0 0 255 0 0 255 255 255 255 255 255 255 255 255 255 255 255 255 0 0 255 255 255 255 255 255 255 255 255 255 255 255 255 0 0 255 255 255 255 204 204 0 204 204 0 204 204 0 204 204 0 73 33 0 0 0 0 109 33 0 69 4 0 112 7 0 152 0 0 164 32 0 139 25 0 131 131 0 204 204 0 204 204 0 204 204 0 204 0 0 0 0 0 0 0 0 0 0 0 0 0 0 204 204 0 204 204 0 204 204 0 204 204 0 0 0 0 204 0 0 0 0 0 0 0 0 0 0 0 204 0 0 204 204 0 204 0 0 204 0 0 204 204 0 204 204 0 204 0 0 204 204 0 204 204 0 204 204 0 204 204 0 0 0 0 91 32 0 106 22 0 99 21 0 121 27 0 0 163 0 163 163 0 163 163 0 163 163 0 163 163 0 0 163 0 163 163 0 0 163 0 0 163 0 163 163 0 0 163 0 163 163 0 163 163 0 163 163 0 163 163 0 0 0 0 163 163 0 163 163 0 
204 204 0 204 204 0 204 204 0 204 204 0 204 204 0 204 204 0 204 0 0 204 204 0 204 204 0 204 204 0 204 204 0 204 204 0 204 0 0 204 0 0 204 0 0 204 204 0 204 204 0 204 204 0 204 204 0 204 0 0 204 204 0 80 25 0 101 25 0 0 2 0 12 0 0 145 25 0 204 204 0 0 0 0 204 204 0 204 204 0 204 0 0 204 204 0 0 0 0 204 204 0 204 204 0 204 204 0 204 204 0 204 204 0 204 204 0 204 204 0 204 204 0 204 204 0 204 0 0 204 204 0 0 0 0 0 204 0 204 204 0 204 0 0 204 204 0 0 204 0 204 204 0 204 204 0 204 204 0 0 0 0 204 204 0 204 204 0 131 131 0 131 131 0 131 131 0 0 0 0 0 0 0 0 0 0 0 0 0 0 0 0 0 0 0 0 0 0 0 0 0 163 163 0 163 163 0 163 163 0 163 163 0 163 163 0 0 163 0 163 163 0 163 163 0 0 163 0 163 163 0 163 163 0 0 163 0 163 163 0 
204 204 0 204 204 0 204 204 0 0 204 0 204 204 0 204 204 0 204 204 0 204 0 0 0 0 0 204 0 0 0 204 0 204 204 0 0 0 0 204 204 0 0 0 0 204 204 0 204 204 0 204 204 0 204 204 0 0 0 0 0 0 0 204 204 0 72 0 0 40 1 0 0 0 0 0 0 0 122 19 0 204 204 0 204 0 0 204 204 0 204 204 0 204 204 0 204 204 0 204 204 0 204 204 0 204 204 0 204 0 0 204 204 0 204 204 0 204 204 0 204 204 0 204 204 0 204 204 0 204 204 0 204 204 0 204 204 0 204 204 0 204 204 0 204 204 0 204 0 0 204 204 0 204 0 0 204 204 0 204 204 0 204 204 0 204 204 0 131 131 0 131 131 0 131 131 0 75 12 0 91 17 0 0 0 0 96 0 0 91 22 0 0 0 0 0 0 0 21 21 0 0 0 0 27 27 0 0 204 0 1 1 0 0 0 0 0 0 0 0 0 0 0 0 0 0 0 0 163 163 0 0 163 0 0 0 0 0 163 0 
204 204 0 204 204 0 204 204 0 204 204 0 204 204 0 204 204 0 204 204 0 204 204 0 204 0 0 0 204 0 0 204 0 204 204 0 204 204 0 204 204 0 0 0 0 0 0 0 0 204 0 204 204 0 204 204 0 204 204 0 0 204 0 62 21 0 35 0 0 51 2 0 59 0 0 0 24 0 128 22 0 135 23 0 204 204 0 204 204 0 0 0 0 204 204 0 204 204 0 204 204 0 204 204 0 204 204 0 0 0 0 204 204 0 0 204 0 204 204 0 204 204 0 204 204 0 204 204 0 0 204 0 204 204 0 204 204 0 204 204 0 0 204 0 204 204 0 0 0 0 0 0 0 204 204 0 0 0 0 204 204 0 204 204 0 204 204 0 163 163 0 0 131 0 131 131 0 131 131 0 0 131 0 0 131 0 131 131 0 131 131 0 0 131 0 131 131 0 131 131 0 131 131 0 131 131 0 131 131 0 0 0 0 131 131 0 0 0 0 0 0 0 0 0 0 0 0 0 0 0 0 0 0 0 0 0 0 0 0 0 
0 0 0 204 204 0 204 204 0 0 0 0 204 204 0 0 204 0 204 204 0 204 204 0 204 204 0 204 204 0 0 0 0 0 0 0 0 204 0 0 0 0 0 0 0 204 204 0 0 0 0 204 204 0 204 204 0 204 204 0 0 26 0 69 23 0 84 25 0 0 29 0 110 26 0 128 27 0 86 3 0 0 27 0 79 17 0 0 0 0 204 204 0 0 204 0 0 0 0 0 204 0 204 204 0 0 0 0 204 204 0 0 0 0 204 204 0 204 0 0 204 204 0 204 204 0 204 204 0 204 0 0 204 204 0 0 0 0 204 204 0 0 0 0 204 204 0 204 204 0 204 204 0 0 204 0 204 204 0 204 204 0 163 163 0 163 163 0 163 163 0 163 163 0 131 131 0 113 21 0 0 35 0 0 131 0 131 131 0 131 131 0 131 131 0 0 131 0 0 0 0 131 131 0 131 131 0 0 0 0 131 131 0 131 131 0 0 131 0 131 131 0 0 131 0 131 131 0 131 131 0 131 131 0 0 0 0 0 0 0 
0 0 0 204 204 0 204 204 0 204 204 0 204 204 0 204 204 0 204 0 0 204 204 0 204 204 0 0 0 0 204 0 0 204 0 0 204 0 0 204 204 0 204 204 0 204 204 0 0 0 0 204 204 0 204 204 0 50 32 0 90 40 0 77 0 0 91 32 0 133 40 0 0 35 0 117 0 0 178 43 0 191 44 0 194 0 0 204 204 0 204 204 0 204 0 0 204 204 0 204 204 0 204 204 0 204 204 0 204 204 0 204 0 0 204 204 0 204 0 0 204 204 0 204 0 0 204 204 0 204 204 0 204 204 0 0 0 0 204 204 0 163 163 0 204 204 0 163 163 0 204 204 0 204 204 0 163 163 0 163 163 0 163 163 0 163 163 0 72 30 0 58 2 0 136 48 0 76 7 0 122 26 0 124 0 0 163 163 0 163 163 0 131 131 0 131 131 0 131 131 0 0 131 0 131 131 0 0 131 0 131 131 0 131 131 0 131 131 0 131 131 0 131 131 0 131 131 0 0 131 0 131 131 0 131 131 0 131 131 0 
204 204 0 0 0 0 204 204 0 204 204 0 204 204 0 204 204 0 204 204 0 204 204 0 204 204 0 204 204 0 204 0 0 204 204 0 204 204 0 204 204 0 0 0 0 204 204 0 204 204 0 204 0 0 204 204 0 58 54 0 0 51 0 73 37 0 0 39 0 107 34 0 0 44 0 155 50 0 137 37 0 137 40 0 0 0 0 204 0 0 204 204 0 204 204 0 204 204 0 0 204 0 0 0 0 204 204 0 204 204 0 104 104 0 204 204 0 204 204 0 204 0 0 204 0 0 204 204 0 204 0 0 0 16 0 204 204 0 0 0 0 204 0 0 0 204 0 204 204 0 204 204 0 204 204 0 163 163 0 163 163 0 163 163 0 163 163 0 163 163 0 131 131 0 131 131 0 131 131 0 163 46 0 109 21 0 163 163 0 163 163 0 131 131 0 163 0 0 0 0 0 163 0 0 131 131 0 131 131 0 131 131 0 0 131 0 131 131 0 0 131 0 131 131 0 131 131 0 0 0 0 131 131 0 131 131 0 131 131 0 
0 0 0 204 204 0 204 204 0 204 204 0 204 204 0 204 0 0 204 204 0 0 0 0 0 0 0 204 204 0 204 0 0 204 204 0 204 204 0 0 204 0 204 204 0 204 204 0 0 0 0 204 204 0 204 204 0 50 63 0 0 44 0 83 43 0 100 42 0 113 41 0 103 44 0 157 55 0 127 41 0 204 204 0 0 0 0 204 204 0 204 204 0 204 204 0 204 204 0 204 204 0 0 0 0 0 0 0 204 204 0 204 204 0 204 204 0 204 204 0 204 204 0 204 0 0 204 0 0 0 0 0 204 204 0 163 163 0 204 204 0 163 163 0 204 204 0 204 204 0 0 204 0 163 163 0 163 163 0 163 163 0 163 163 0 163 163 0 115 22 0 131 131 0 111 20 0 0 31 0 127 0 0 130 36 0 159 42 0 163 163 0 163 163 0 0 163 0 0 163 0 0 0 0 163 163 0 163 163 0 104 104 0 0 131 0 131 131 0 131 131 0 0 131 0 131 131 0 131 131 0 131 131 0 131 131 0 0 131 0 
204 204 0 204 204 0 204 0 0 204 204 0 204 204 0 0 204 0 0 204 0 204 204 0 204 204 0 204 204 0 204 204 0 204 204 0 204 204 0 204 204 0 204 204 0 204 204 0 204 204 0 204 204 0 42 54 0 50 49 0 0 0 0 0 61 0 123 63 0 132 71 0 142 63 0 151 68 0 204 0 0 204 204 0 0 0 0 204 204 0 0 204 0 0 204 0 0 84 0 104 104 0 0 204 0 204 204 0 204 204 0 204 204 0 204 204 0 204 204 0 204 204 0 204 0 0 204 204 0 0 0 0 0 0 0 163 163 0 0 204 0 0 204 0 163 163 0 163 163 0 163 163 0 204 204 0 163 163 0 163 163 0 163 163 0 163 163 0 163 163 0 131 0 0 132 73 0 149 68 0 95 11 0 161 57 0 163 163 0 163 163 0 0 163 0 163 163 0 163 0 0 163 163 0 163 163 0 163 163 0 163 163 0 163 163 0 163 163 0 163 163 0 131 131 0 163 163 0 104 104 0 131 131 0 131 131 0 131 131 0 
204 204 0 204 204 0 204 204 0 204 0 0 0 204 0 204 204 0 204 204 0 204 204 0 0 0 0 204 204 0 204 204 0 204 204 0 204 204 0 204 204 0 204 204 0 0 0 0 204 204 0 204 0 0 204 204 0 82 66 0 77 77 0 0 0 0 91 76 0 112 57 0 148 72 0 0 0 0 204 204 0 204 204 0 204 0 0 204 204 0 0 204 0 204 204 0 204 0 0 190 81 0 0 0 0 204 204 0 0 0 0 204 204 0 204 204 0 204 204 0 204 204 0 204 204 0 204 204 0 0 204 0 163 163 0 163 163 0 204 204 0 204 0 0 204 204 0 204 204 0 204 204 0 0 0 0 163 163 0 163 163 0 163 163 0 163 163 0 163 163 0 127 70 0 114 17 0 154 63 0 134 72 0 129 0 0 163 163 0 134 64 0 131 131 0 131 131 0 0 131 0 131 131 0 163 163 0 163 163 0 163 163 0 163 163 0 163 163 0 163 163 0 163 163 0 163 163 0 163 163 0 131 131 0 163 163 0 163 163 0 
204 204 0 204 204 0 204 204 0 204 204 0 204 204 0 204 204 0 204 204 0 204 204 0 204 204 0 204 204 0 204 204 0 204 204 0 0 204 0 0 0 0 0 204 0 204 0 0 204 204 0 204 204 0 0 72 0 0 0 0 68 71 0 81 71 0 0 0 0 120 69 0 120 0 0 147 0 0 204 204 0 0 204 0 163 163 0 204 0 0 204 204 0 204 0 0 151 57 0 204 204 0 204 204 0 0 0 0 204 0 0 0 0 0 0 204 0 204 204 0 204 204 0 204 204 0 0 204 0 204 204 0 204 204 0 204 204 0 163 163 0 204 204 0 204 204 0 204 204 0 204 204 0 204 204 0 204 204 0 204 204 0 163 163 0 204 204 0 163 163 0 27 8 0 126 0 0 163 163 0 163 163 0 148 61 0 163 163 0 163 163 0 163 163 0 131 131 0 163 163 0 131 131 0 163 163 0 163 163 0 163 163 0 163 163 0 163 163 0 163 163 0 163 163 0 163 163 0 163 163 0 163 163 0 204 204 0 163 163 0 
204 204 0 204 204 0 204 204 0 204 204 0 0 0 0 204 204 0 204 204 0 204 204 0 204 204 0 204 204 0 204 204 0 204 204 0 0 0 0 204 204 0 204 204 0 204 204 0 0 204 0 0 204 0 204 204 0 204 204 0 204 204 0 0 92 0 124 80 0 134 81 0 204 204 0 204 204 0 0 0 0 204 204 0 0 0 0 204 204 0 204 204 0 204 204 0 204 204 0 204 0 0 204 0 0 204 204 0 204 204 0 204 0 0 0 204 0 204 204 0 204 204 0 204 204 0 0 204 0 204 204 0 204 204 0 204 204 0 204 204 0 204 204 0 204 204 0 204 204 0 204 204 0 204 204 0 204 204 0 204 204 0 204 204 0 163 163 0 204 204 0 204 204 0 163 163 0 121 73 0 0 74 0 163 163 0 163 163 0 163 163 0 131 131 0 163 163 0 163 163 0 163 0 0 163 163 0 131 131 0 163 163 0 163 163 0 163 163 0 163 163 0 163 163 0 163 163 0 163 163 0 163 163 0 204 204 0 163 163 0 
204 204 0 204 204 0 204 204 0 0 204 0 204 204 0 204 204 0 0 0 0 0 204 0 204 204 0 204 204 0 0 0 0 204 204 0 0 204 0 204 204 0 204 204 0 204 204 0 204 204 0 204 204 0 0 204 0 204 204 0 204 204 0 204 204 0 0 90 0 204 204 0 140 83 0 204 0 0 204 204 0 204 204 0 204 204 0 0 204 0 204 204 0 102 37 0 204 204 0 204 0 0 0 0 0 0 204 0 0 204 0 204 204 0 204 0 0 204 204 0 204 204 0 204 204 0 0 204 0 204 0 0 0 0 0 204 204 0 204 204 0 0 0 0 204 204 0 204 204 0 0 0 0 0 0 0 204 0 0 204 204 0 204 204 0 204 0 0 163 163 0 204 204 0 204 204 0 204 204 0 163 163 0 163 163 0 163 163 0 163 163 0 163 163 0 163 163 0 163 163 0 163 163 0 163 163 0 163 163 0 163 163 0 163 163 0 163 163 0 163 163 0 163 163 0 163 163 0 163 163 0 204 204 0 204 0 0 204 204 0 
204 204 0 204 204 0 204 204 0 0 204 0 0 204 0 204 204 0 204 204 0 0 204 0 204 204 0 204 204 0 204 204 0 204 204 0 204 204 0 204 204 0 204 204 0 204 204 0 204 204 0 0 204 0 204 204 0 204 204 0 204 204 0 0 204 0 204 204 0 204 204 0 204 204 0 0 204 0 0 0 0 204 204 0 204 204 0 204 204 0 204 204 0 204 204 0 204 0 0 204 204 0 0 0 0 204 0 0 204 0 0 204 204 0 204 204 0 0 204 0 204 204 0 0 204 0 204 204 0 0 204 0 204 204 0 204 204 0 204 204 0 204 204 0 204 204 0 204 204 0 204 204 0 204 204 0 204 0 0 204 204 0 204 204 0 204 204 0 204 204 0 204 204 0 204 204 0 204 204 0 204 204 0 163 163 0 163 163 0 163 163 0 163 163 0 163 163 0 163 163 0 163 163 0 163 163 0 0 0 0 163 163 0 163 163 0 163 163 0 163 163 0 163 163 0 163 163 0 204 204 0 204 204 0 204 204 0 204 0 0 
204 204 0 204 204 0 204 204 0 204 204 0 204 204 0 204 0 0 0 0 0 0 0 0 204 204 0 204 204 0 204 0 0 204 204 0 204 204 0 0 204 0 0 204 0 0 0 0 204 204 0 204 0 0 204 204 0 0 0 0 204 204 0 0 0 0 204 204 0 204 0 0 204 204 0 204 204 0 204 0 0 204 204 0 204 204 0 204 204 0 204 204 0 0 0 0 204 204 0 204 204 0 204 0 0 204 204 0 204 204 0 204 204 0 204 204 0 204 204 0 204 204 0 204 204 0 204 204 0 0 204 0 204 204 0 204 204 0 204 204 0 204 0 0 0 204 0 204 204 0 204 204 0 204 204 0 204 204 0 0 204 0 0 0 0 204 204 0 204 204 0 204 204 0 0 0 0 204 204 0 0 204 0 0 204 0 0 0 0 163 163 0 163 163 0 204 204 0 204 204 0 163 163 0 163 163 0 163 163 0 163 163 0 163 163 0 163 163 0 163 163 0 163 163 0 204 204 0 163 163 0 0 0 0 204 204 0 204 204 0 
204 204 0 204 204 0 204 0 0 204 204 0 204 204 0 204 204 0 204 204 0 204 204 0 204 0 0 204 0 0 204 0 0 0 0 0 204 204 0 204 204 0 204 204 0 204 204 0 0 204 0 204 204 0 204 204 0 204 204 0 204 204 0 204 0 0 204 204 0 204 204 0 0 0 0 204 204 0 204 204 0 204 204 0 0 204 0 204 204 0 0 204 0 204 204 0 0 204 0 204 204 0 204 0 0 0 204 0 0 0 0 0 204 0 204 204 0 204 204 0 204 204 0 204 204 0 204 204 0 0 0 0 204 204 0 204 204 0 204 204 0 0 0 0 204 204 0 204 204 0 0 0 0 0 0 0 204 204 0 0 204 0 204 204 0 204 204 0 204 204 0 204 204 0 204 204 0 0 0 0 204 204 0 204 204 0 204 204 0 0 0 0 163 163 0 204 204 0 163 163 0 163 163 0 163 163 0 163 163 0 163 163 0 0 204 0 163 163 0 204 204 0 204 204 0 204 204 0 204 204 0 204 204 0 204 204 0 204 204 0 
204 204 0 204 204 0 204 204 0 0 204 0 204 204 0 0 204 0 204 204 0 204 204 0 0 0 0 204 204 0 204 204 0 0 204 0 204 204 0 204 0 0 204 204 0 204 204 0 204 204 0 0 0 0 204 204 0 204 204 0 204 204 0 204 0 0 204 204 0 204 0 0 204 204 0 0 0 0 204 204 0 204 204 0 204 204 0 204 204 0 204 204 0 204 204 0 0 0 0 204 204 0 0 0 0 204 204 0 204 204 0 204 204 0 204 204 0 0 0 0 204 204 0 204 204 0 204 0 0 204 204 0 204 0 0 204 204 0 0 0 0 204 204 0 0 0 0 204 204 0 204 204 0 204 0 0 204 204 0 204 204 0 204 204 0 0 204 0 204 0 0 204 204 0 0 204 0 204 0 0 0 0 0 204 204 0 204 0 0 204 204 0 204 204 0 204 204 0 204 204 0 0 0 0 163 163 0 163 163 0 204 204 0 0 204 0 0 204 0 163 163 0 0 0 0 204 0 0 204 204 0 204 204 0 204 204 0 204 204 0 
