P3
100 50
255
46 96 93 46 97 92 47 97 92 48 97 91 48 98 90 49 98 90 50 98 89 51 99 88 51 99 87 52 99 87 53 100 86 54 100 85 55 100 84 56 101 83 57 101 83 58 101 82 60 102 81 61 102 80 62 102 79 63 103 78 65 103 77 66 103 77 68 104 76 69 104 75 71 105 74 73 105 73 75 105 72 77 106 71 79 106 70 81 107 69 83 107 68 85 107 67 87 108 67 90 108 66 92 108 65 95 109 64 97 109 63 100 109 62 103 110 62 105 110 61 108 110 60 111 111 60 114 111 59 117 111 59 121 111 58 124 111 58 127 112 58 130 112 58 134 112 57 137 112 57 140 112 57 144 112 57 147 112 57 150 112 58 154 112 58 157 111 58 160 111 58 163 111 59 166 111 59 169 111 60 172 110 60 175 110 61 178 110 62 181 109 62 183 109 63 186 109 64 189 108 65 191 108 66 193 108 67 196 107 67 198 107 68 200 107 69 202 106 70 204 106 71 206 105 72 208 105 73 209 105 74 211 104 75 213 104 76 214 103 77 216 103 77 217 103 78 218 102 79 220 102 80 221 102 81 222 101 82 223 101 83 224 101 83 225 100 84 226 100 85 227 100 86 228 99 87 229 99 87 230 99 88 231 98 89 232 98 90 232 98 90 233 97 91 234 97 92 234 97 92 
45 96 93 46 96 92 46 96 91 47 97 91 48 97 90 48 97 89 49 97 88 50 98 88 51 98 87 52 98 86 52 99 85 53 99 85 54 99 84 55 100 83 57 100 82 58 100 81 59 101 80 60 101 79 61 102 79 63 102 78 64 102 77 66 103 76 67 103 75 69 103 74 70 104 73 72 104 72 74 105 71 76 105 70 78 105 69 80 106 68 82 106 67 84 107 66 86 107 65 89 107 64 91 108 64 94 108 63 96 108 62 99 109 61 102 109 60 105 109 60 108 110 59 111 110 58 114 110 58 117 110 57 120 110 57 124 111 56 127 111 56 130 111 56 134 111 56 137 111 56 140 111 56 144 111 56 147 111 56 150 111 56 154 111 56 157 111 56 160 110 57 164 110 57 167 110 58 170 110 58 173 110 59 176 109 60 179 109 60 181 109 61 184 108 62 187 108 63 189 108 64 192 107 64 194 107 65 197 107 66 199 106 67 201 106 68 203 105 69 205 105 70 207 105 71 209 104 72 210 104 73 212 103 74 214 103 75 215 103 76 217 102 77 218 102 78 219 102 79 221 101 79 222 101 80 223 100 81 224 100 82 225 100 83 226 99 84 227 99 85 228 99 85 229 98 86 230 98 87 231 98 88 231 97 88 232 97 89 233 97 90 234 97 91 234 96 91 235 96 92 
44 95 92 45 95 92 46 96 91 46 96 90 47 96 90 48 96 89 48 97 88 49 97 87 50 97 87 51 98 86 52 98 85 53 98 84 54 99 83 55 99 82 56 99 82 57 100 81 58 100 80 59 100 79 60 101 78 62 101 77 63 101 76 65 102 75 66 102 74 68 103 73 69 103 72 71 103 71 73 104 70 75 104 69 77 105 68 79 105 67 81 105 66 83 106 65 86 106 64 88 106 63 90 107 62 93 107 61 96 107 61 98 108 60 101 108 59 104 108 58 107 109 57 110 109 57 113 109 56 117 109 56 120 110 55 123 110 55 127 110 54 130 110 54 133 110 54 137 110 54 140 110 54 144 110 54 147 110 54 151 110 54 154 110 54 157 110 55 161 110 55 164 109 56 167 109 56 170 109 57 173 109 57 176 108 58 179 108 59 182 108 60 185 107 61 188 107 61 190 107 62 193 106 63 195 106 64 197 106 65 200 105 66 202 105 67 204 105 68 206 104 69 208 104 70 209 103 71 211 103 72 213 103 73 214 102 74 216 102 75 217 101 76 219 101 77 220 101 78 221 100 79 223 100 80 224 100 81 225 99 82 226 99 82 227 99 83 228 98 84 229 98 85 230 98 86 231 97 87 231 97 87 232 97 88 233 96 89 234 96 90 234 96 90 235 96 91 236 95 92 
44 94 92 44 95 91 45 95 91 46 95 90 46 95 89 47 96 88 48 96 88 49 96 87 49 97 86 50 97 85 51 97 85 52 97 84 53 98 83 54 98 82 55 98 81 56 99 80 57 99 79 58 99 78 60 100 77 61 100 76 62 101 75 64 101 74 65 101 73 67 102 72 69 102 71 70 102 70 72 103 69 74 103 68 76 104 67 78 104 66 80 104 65 82 105 64 85 105 63 50 42 17 0 0 0 50 50 24 32 56 55 30 48 36 81 63 64 56 39 14 95 46 21 87 56 33 88 42 16 40 55 38 28 55 64 83 61 47 102 49 30 130 109 52 133 109 52 137 109 52 140 109 52 144 109 52 147 109 52 151 109 52 154 109 53 158 109 53 161 109 54 164 108 54 168 108 55 171 108 55 174 108 56 177 108 57 180 107 58 183 107 58 186 107 59 188 106 60 191 106 61 193 106 62 196 105 63 198 105 64 200 104 65 203 104 66 205 104 67 207 103 68 209 103 69 210 102 70 212 102 71 214 102 72 215 101 73 217 101 74 218 101 75 220 100 76 221 100 77 222 99 78 223 99 79 225 99 80 226 98 81 227 98 82 228 98 83 229 97 84 230 97 85 230 97 85 231 97 86 232 96 87 233 96 88 234 96 88 234 95 89 235 95 90 236 95 91 236 95 91 
43 94 92 44 94 91 44 94 90 45 94 90 46 95 89 46 95 88 47 95 87 48 95 87 49 96 86 50 96 85 50 96 84 51 97 83 52 97 82 53 97 81 54 98 81 55 98 80 56 98 79 58 99 78 59 99 77 60 99 76 62 100 75 63 100 74 64 100 73 66 101 72 68 101 70 69 102 69 71 102 68 73 102 67 75 103 66 77 103 65 79 103 64 82 104 63 84 104 62 86 105 61 112 48 37 92 45 19 0 0 0 172 71 30 0 0 0 53 56 32 74 41 13 55 53 26 0 0 0 106 48 32 65 55 28 40 50 29 226 72 64 59 61 47 44 43 20 85 84 41 45 54 33 57 49 20 76 63 57 41 49 27 87 53 28 77 47 17 173 80 30 84 50 21 63 62 54 194 80 39 88 62 62 87 53 26 43 55 37 95 58 45 48 56 36 27 55 61 43 44 21 111 45 33 99 74 33 199 104 63 201 103 64 203 103 65 206 103 66 208 102 67 209 102 68 211 102 69 213 101 70 215 101 72 216 100 73 218 100 74 219 100 75 220 99 76 222 99 77 223 99 78 224 98 79 225 98 80 226 98 81 227 97 81 228 97 82 229 97 83 230 96 84 231 96 85 232 96 86 233 95 87 233 95 87 234 95 88 235 95 89 236 94 90 236 94 90 237 94 91 
43 93 92 43 93 91 44 93 90 45 94 89 45 94 89 46 94 88 47 94 87 47 95 86 48 95 85 49 95 85 50 95 84 51 96 83 51 96 82 52 96 81 53 97 80 55 97 79 56 97 78 57 98 77 58 98 76 59 98 75 61 99 74 62 99 73 64 99 72 65 100 71 67 100 70 69 101 69 70 101 67 72 101 66 74 102 65 76 102 64 78 102 63 81 103 62 83 103 61 85 104 60 88 104 59 158 86 29 0 0 0 86 78 39 36 52 36 98 49 26 80 42 14 45 45 20 0 0 0 95 48 23 0 0 0 0 0 0 56 51 22 0 0 0 0 0 0 99 56 41 72 43 13 63 45 15 66 51 21 0 0 0 0 0 0 28 50 40 67 55 26 0 0 0 43 43 20 0 0 0 56 59 42 0 0 0 67 49 18 78 56 31 54 57 35 107 45 28 57 51 22 112 53 52 198 103 61 200 103 62 202 102 63 204 102 64 206 102 65 208 101 66 210 101 67 212 101 69 214 100 70 215 100 71 217 99 72 218 99 73 220 99 74 221 98 75 223 98 76 224 98 77 225 97 78 226 97 79 227 97 80 228 96 81 229 96 82 230 96 83 231 95 84 232 95 85 233 95 85 233 95 86 234 94 87 235 94 88 235 94 89 236 94 89 237 93 90 237 93 91 
42 92 91 43 92 91 43 92 90 44 93 89 45 93 88 45 93 87 46 93 87 47 94 86 47 94 85 48 94 84 49 95 83 50 95 82 51 95 81 52 95 80 53 96 80 54 96 79 55 96 78 56 97 77 57 97 75 59 97 74 60 98 73 61 98 72 63 98 71 64 99 70 66 99 69 68 100 68 69 100 67 71 100 65 73 101 64 75 101 63 78 101 62 80 102 61 82 102 60 85 102 58 87 103 57 0 0 0 0 0 0 0 0 0 37 46 26 93 44 19 91 82 37 41 45 22 0 0 0 89 46 19 98 49 26 69 44 14 0 0 0 25 23 9 117 44 39 0 0 0 92 48 22 0 0 0 107 68 32 0 0 0 108 39 26 83 42 15 0 0 0 88 45 18 127 38 64 60 56 31 49 49 23 82 54 27 0 0 0 45 81 77 74 43 14 57 49 19 0 0 0 92 59 92 198 102 60 201 102 61 203 101 62 205 101 63 207 101 64 209 100 65 211 100 67 213 100 68 215 99 69 216 99 70 218 98 71 219 98 72 221 98 73 222 97 74 223 97 75 225 97 77 226 96 78 227 96 79 228 96 80 229 95 80 230 95 81 231 95 82 232 95 83 232 94 84 233 94 85 234 94 86 235 93 87 235 93 87 236 93 88 237 93 89 237 92 90 238 92 91 
42 91 91 42 91 90 43 92 90 43 92 89 44 92 88 45 92 87 45 93 86 46 93 86 47 93 85 48 93 84 48 94 83 49 94 82 50 94 81 51 95 80 52 95 79 53 95 78 54 95 77 55 96 76 57 96 75 58 96 74 59 97 73 61 97 72 62 97 70 64 98 69 65 98 68 67 98 67 69 99 66 71 99 64 73 100 63 75 100 62 77 100 61 79 101 60 81 101 58 84 101 57 86 102 56 89 102 55 0 0 0 97 44 21 0 0 0 144 84 26 43 40 19 0 0 0 100 52 33 0 0 0 0 0 0 22 27 16 0 0 0 0 0 0 228 78 66 0 0 0 66 45 15 102 43 24 49 43 18 0 0 0 0 0 0 0 0 0 0 0 0 118 51 57 0 0 0 57 47 17 81 46 16 100 42 21 54 43 16 186 92 41 0 0 0 55 74 63 88 82 39 0 0 0 199 101 58 202 101 60 204 100 61 206 100 62 208 100 63 210 99 64 212 99 66 214 98 67 215 98 68 217 98 69 219 97 70 220 97 72 221 97 73 223 96 74 224 96 75 225 96 76 226 95 77 227 95 78 229 95 79 229 95 80 230 94 81 231 94 82 232 94 83 233 93 84 234 93 85 235 93 86 235 93 86 236 92 87 237 92 88 237 92 89 238 92 90 238 91 90 
41 90 91 42 91 90 42 91 89 43 91 88 44 91 88 44 91 87 45 92 86 45 92 85 46 92 84 47 92 83 48 93 82 49 93 82 50 93 81 50 94 80 51 94 79 52 94 78 54 94 76 55 95 75 56 95 74 57 95 73 58 96 72 60 96 71 61 96 70 63 97 69 64 97 67 66 97 66 68 98 65 70 98 64 72 98 62 74 99 61 76 99 60 78 100 59 81 100 57 83 100 56 86 101 55 88 101 54 91 101 53 0 0 0 179 75 32 223 72 60 0 0 0 55 51 23 42 37 19 51 56 33 20 22 12 26 40 32 68 82 52 59 39 13 30 26 12 46 25 12 20 48 51 94 55 35 51 42 16 56 57 35 162 79 27 0 0 0 0 0 0 0 0 0 0 0 0 0 0 0 196 97 50 0 0 0 0 0 0 0 0 0 0 0 0 0 0 0 33 42 27 198 100 56 200 100 57 202 100 59 205 99 60 207 99 61 209 98 62 211 98 64 213 98 65 215 97 66 216 97 67 218 97 69 219 96 70 221 96 71 222 96 72 224 95 73 225 95 74 226 95 75 227 94 76 228 94 78 229 94 79 230 94 80 231 93 81 232 93 82 233 93 82 234 92 83 234 92 84 235 92 85 236 92 86 236 91 87 237 91 88 238 91 88 238 91 89 239 91 90 
41 90 91 41 90 90 42 90 89 42 90 88 43 90 87 44 91 87 44 91 86 45 91 85 46 91 84 46 92 83 47 92 82 48 92 81 49 92 80 50 93 79 51 93 78 52 93 77 53 93 76 54 94 75 55 94 74 56 94 73 58 95 71 59 95 70 61 95 69 62 96 68 64 96 67 65 96 65 67 97 64 69 97 63 71 97 61 73 98 60 75 98 59 77 98 58 80 99 56 82 99 55 85 99 54 88 100 52 90 100 51 93 100 50 39 45 24 0 0 0 0 0 0 0 0 0 69 46 15 8 24 37 44 26 13 23 46 42 174 78 30 41 45 23 80 49 19 11 13 8 110 46 33 0 0 0 41 29 18 42 24 10 0 0 0 95 39 18 145 80 26 28 12 11 139 96 34 72 38 12 85 79 39 52 20 12 116 39 36 76 58 34 0 0 0 0 0 0 0 0 0 198 99 55 201 99 56 203 98 58 205 98 59 208 98 60 210 97 61 212 97 63 214 97 64 215 96 65 217 96 67 219 96 68 220 95 69 222 95 70 223 95 71 224 94 73 225 94 74 227 94 75 228 93 76 229 93 77 230 93 78 231 93 79 232 92 80 233 92 81 233 92 82 234 92 83 235 91 84 236 91 85 236 91 86 237 91 87 238 90 87 238 90 88 239 90 89 239 90 90 
24 53 59 25 53 58 25 53 57 26 53 56 26 53 54 25 52 51 24 50 48 22 46 43 45 90 84 46 91 83 47 91 82 47 91 81 48 91 80 49 92 79 50 92 78 51 92 77 52 92 76 53 93 74 54 93 73 56 93 72 57 94 71 58 94 70 60 94 68 61 95 67 63 95 66 65 95 65 66 95 63 68 96 62 70 96 61 72 96 59 74 97 58 77 97 57 79 97 55 82 98 54 84 98 53 87 98 51 90 99 50 93 99 49 96 99 48 58 50 21 0 0 0 152 99 38 20 48 53 0 0 0 0 0 0 0 0 0 0 0 0 52 38 15 64 57 33 67 58 35 70 59 36 73 58 35 76 57 33 24 18 8 0 0 0 7 2 3 50 52 26 63 18 28 0 0 0 35 31 24 0 0 0 63 18 29 0 0 0 58 22 49 45 31 38 0 0 0 0 0 0 199 98 54 202 97 55 204 97 57 206 97 58 208 96 59 210 96 61 212 96 62 214 95 63 216 95 65 218 95 66 219 95 67 221 94 68 222 94 70 224 94 71 225 93 72 226 93 73 227 93 74 228 92 76 229 92 77 230 92 78 231 92 79 232 91 80 233 91 81 234 91 82 235 91 83 235 90 84 236 90 85 237 90 85 237 90 86 238 90 87 239 89 88 239 89 89 240 89 90 
33 57 73 34 58 72 35 58 71 36 58 70 36 59 68 37 59 66 37 59 64 37 59 61 37 58 58 36 58 55 35 56 52 32 55 48 29 51 43 49 91 78 50 91 77 51 91 76 52 91 75 53 92 74 54 92 73 55 92 72 56 92 70 58 93 69 59 93 68 61 93 66 62 94 65 64 94 64 66 94 62 67 95 61 69 95 60 71 95 58 74 96 57 76 96 56 78 96 54 81 97 53 83 97 51 86 97 50 89 97 49 92 98 47 95 98 46 98 98 45 10 24 27 0 0 0 22 20 60 0 0 0 54 54 27 53 58 37 55 60 44 58 61 48 62 62 51 66 62 52 70 62 53 74 62 52 78 62 51 82 61 48 85 60 44 87 58 37 30 12 15 0 0 0 2 1 0 60 23 25 7 2 4 0 0 0 90 88 40 0 0 0 0 0 0 0 0 0 197 97 51 200 97 53 202 96 54 205 96 56 207 96 57 209 95 58 211 95 60 213 95 61 215 94 62 217 94 64 218 94 65 220 93 66 221 93 68 223 93 69 224 92 70 226 92 72 227 92 73 228 92 74 229 91 75 230 91 76 231 91 77 232 91 78 233 90 79 234 90 80 234 90 81 235 90 82 236 89 83 237 89 84 237 89 85 238 89 86 239 89 87 239 88 88 240 88 89 240 88 89 
40 59 83 42 60 82 43 60 81 44 60 80 45 61 78 47 61 76 47 61 74 48 62 72 48 62 69 48 62 66 48 61 63 47 61 59 46 60 55 44 59 51 41 57 47 36 55 42 27 47 37 52 91 73 53 91 72 54 91 71 56 91 70 57 92 69 58 92 67 60 92 66 62 92 65 63 93 63 65 93 62 67 93 60 69 94 59 71 94 58 73 94 56 75 95 55 78 95 53 80 95 52 83 95 50 85 96 49 88 96 48 91 96 46 95 97 45 98 97 44 101 97 43 9 6 15 7 18 43 0 0 0 46 59 47 49 60 53 52 62 58 56 62 61 60 63 64 65 63 65 70 63 66 75 63 65 79 63 64 84 62 61 88 62 58 91 60 53 93 59 47 94 56 38 0 0 0 12 12 5 63 20 41 62 18 44 0 0 0 62 22 37 125 42 85 0 0 0 198 95 50 201 95 52 203 95 53 205 95 55 208 94 56 210 94 58 212 94 59 214 93 60 216 93 62 217 93 63 219 92 65 221 92 66 222 92 67 224 92 69 225 91 70 226 91 71 227 91 72 228 91 73 230 90 75 231 90 76 232 90 77 232 90 78 233 89 79 234 89 80 235 89 81 236 89 82 236 89 83 237 88 84 238 88 85 238 88 86 239 88 87 240 88 88 240 87 88 241 87 89 
47 59 91 49 60 90 50 60 89 52 61 88 54 61 86 55 62 84 56 62 82 57 62 80 58 63 77 59 63 75 59 63 71 59 63 68 59 63 64 58 63 60 56 62 56 54 61 51 51 60 47 46 58 42 38 54 37 54 90 71 55 90 69 56 90 68 58 91 67 59 91 65 61 91 64 63 92 63 64 92 61 66 92 60 68 92 58 70 93 57 72 93 55 75 93 54 77 94 52 79 94 51 82 94 49 85 94 48 88 95 46 91 95 45 94 95 44 97 95 42 101 96 41 43 52 31 0 0 0 40 58 52 43 60 59 46 61 65 50 62 69 55 63 72 60 63 75 65 63 76 70 63 76 75 63 76 80 63 75 85 63 72 90 62 69 94 61 65 97 60 59 99 58 52 100 56 44 64 61 96 59 25 40 0 0 0 0 0 0 0 0 0 0 0 0 0 0 0 199 94 49 201 94 51 204 94 52 206 93 54 208 93 55 211 93 57 213 92 58 214 92 60 216 92 61 218 92 63 220 91 64 221 91 65 223 91 67 224 90 68 225 90 69 227 90 71 228 90 72 229 89 73 230 89 74 231 89 75 232 89 77 233 89 78 234 88 79 235 88 80 235 88 81 236 88 82 237 88 83 238 87 84 238 87 85 239 87 86 239 87 86 240 87 87 240 86 88 241 86 89 
53 59 98 55 59 97 57 60 96 59 60 95 61 61 93 62 61 91 64 62 89 66 62 87 67 63 85 68 63 82 69 63 79 70 63 75 70 63 72 70 63 68 69 63 64 68 63 59 66 62 54 63 62 49 59 60 44 53 58 39 44 54 34 56 89 68 57 89 66 59 90 65 60 90 63 62 90 62 64 90 60 65 91 59 67 91 57 69 91 56 72 92 54 74 92 53 76 92 51 79 92 50 81 93 48 84 93 47 87 93 45 90 93 44 93 94 43 97 94 41 39 52 33 35 55 46 6 13 13 0 0 0 40 60 69 44 61 75 49 61 79 54 62 82 59 62 84 64 62 85 70 63 86 75 62 85 81 62 84 86 62 82 91 61 79 96 61 75 100 60 69 103 59 63 105 57 56 0 0 0 61 24 34 0 0 0 63 19 36 62 23 38 0 0 0 196 93 47 199 93 48 202 92 50 204 92 51 207 92 53 209 92 54 211 91 56 213 91 57 215 91 59 217 90 60 219 90 62 220 90 63 222 90 65 223 89 66 225 89 68 226 89 69 227 89 70 228 89 71 230 88 73 231 88 74 232 88 75 233 88 76 233 87 77 234 87 78 235 87 80 236 87 81 237 87 82 237 87 83 238 86 84 239 86 84 239 86 85 240 86 86 240 86 87 241 86 88 241 85 89 
58 58 104 60 58 103 63 59 102 65 59 101 67 60 99 69 60 97 71 61 95 73 61 93 74 62 91 76 62 88 77 62 85 78 63 82 79 63 78 80 63 74 80 63 70 79 63 66 78 63 61 76 63 56 74 62 50 70 61 45 64 59 39 57 57 34 45 53 30 58 88 64 60 89 63 61 89 61 63 89 60 65 89 58 67 90 57 69 90 55 71 90 54 73 90 52 76 91 51 78 91 49 81 91 47 84 91 46 87 92 44 90 92 43 93 92 42 37 50 31 31 53 46 30 56 57 32 57 65 22 45 43 0 0 0 43 60 83 48 60 87 53 61 90 58 61 92 64 61 93 70 61 94 76 61 93 81 61 92 87 61 90 92 60 87 97 60 83 102 59 78 105 58 72 0 0 0 15 5 10 25 11 28 54 23 54 63 18 42 0 0 0 118 49 51 197 91 46 200 91 47 202 91 49 205 91 51 207 90 52 210 90 54 212 90 55 214 90 57 216 89 58 218 89 60 219 89 61 221 89 63 222 88 64 224 88 66 225 88 67 227 88 68 228 88 70 229 87 71 230 87 72 231 87 74 232 87 75 233 87 76 234 86 77 235 86 78 235 86 79 236 86 80 237 86 81 238 86 82 238 85 83 239 85 84 239 85 85 240 85 86 241 85 87 241 85 88 242 85 89 
63 57 109 65 57 108 68 57 107 70 58 106 73 58 104 75 59 103 77 59 101 79 60 99 81 60 96 83 61 93 85 61 91 86 61 87 87 62 84 88 62 80 89 62 76 89 62 71 89 62 66 88 62 61 86 62 56 83 61 50 79 60 44 74 59 39 67 57 33 56 54 28 33 45 29 61 88 61 0 0 0 0 0 0 0 0 0 0 0 0 70 89 53 73 89 51 75 89 50 78 89 48 80 90 47 83 90 45 86 90 43 89 90 42 43 46 22 28 51 44 26 53 56 27 55 65 29 56 73 33 57 80 18 49 73 13 25 46 0 0 0 52 59 97 58 59 99 64 59 101 70 59 101 76 59 101 82 59 99 88 59 97 93 59 94 98 58 90 0 0 0 0 0 0 0 0 0 60 24 42 63 20 38 125 37 52 0 0 0 101 39 118 105 37 116 197 90 45 200 90 47 203 89 48 205 89 50 208 89 51 210 89 53 212 88 55 214 88 56 216 88 58 218 88 59 220 88 61 221 87 62 223 87 64 224 87 65 226 87 67 227 87 68 228 86 69 229 86 71 230 86 72 231 86 73 232 86 74 233 85 76 234 85 77 235 85 78 236 85 79 237 85 80 237 85 81 238 85 82 239 84 83 239 84 84 240 84 85 240 84 86 241 84 87 241 84 88 242 84 88 
67 55 113 70 55 112 72 56 111 75 56 110 77 56 109 80 57 107 82 57 105 85 58 103 87 58 101 89 59 98 91 59 95 93 59 92 94 60 89 96 60 85 97 60 81 97 60 76 97 60 71 97 60 66 96 60 61 94 60 55 23 24 11 87 59 43 82 58 37 74 57 31 63 54 26 44 48 24 62 86 59 64 87 57 0 0 0 0 0 0 0 0 0 0 0 0 0 0 0 0 0 0 0 0 0 0 0 0 0 0 0 0 0 0 28 49 38 24 51 52 23 52 63 24 54 72 27 54 80 31 55 87 35 56 92 9 21 47 26 21 62 0 0 0 0 0 0 0 0 0 69 56 112 0 0 0 0 0 0 0 0 0 0 0 0 53 26 50 6 3 6 43 27 55 63 22 35 0 0 0 123 36 93 0 0 0 0 0 0 94 36 122 195 88 43 198 88 44 201 88 46 203 88 47 206 88 49 208 87 51 211 87 52 213 87 54 215 87 56 217 87 57 218 86 59 220 86 60 222 86 62 223 86 63 225 86 65 226 86 66 227 85 68 229 85 69 230 85 70 231 85 72 232 85 73 233 85 74 234 84 75 235 84 77 235 84 78 236 84 79 237 84 80 238 84 81 238 84 82 239 83 83 240 83 84 240 83 85 241 83 86 241 83 87 242 83 88 242 83 88 
70 53 117 73 53 116 76 54 115 79 54 114 82 54 113 84 55 111 87 55 109 89 55 107 92 56 105 94 56 102 96 57 99 99 57 96 100 57 93 102 57 89 103 58 85 104 58 80 105 58 76 105 58 70 105 58 65 103 58 59 0 0 0 0 0 0 94 57 40 88 56 34 79 55 28 66 43 13 46 47 22 63 85 57 65 85 55 67 86 54 0 0 0 0 0 0 0 0 0 0 0 0 0 0 0 0 0 0 0 0 0 35 45 27 23 48 47 20 50 59 21 51 69 22 52 78 26 53 86 30 53 92 34 54 98 39 54 102 0 0 0 0 0 0 16 26 50 18 26 50 0 0 0 0 0 0 11 12 29 16 12 30 0 0 0 0 0 0 0 0 0 0 0 0 0 0 0 0 0 0 30 10 22 0 0 0 0 0 0 0 0 0 195 87 42 198 87 44 201 86 45 204 86 47 206 86 49 209 86 50 211 86 52 213 86 54 215 85 55 217 85 57 219 85 58 221 85 60 222 85 62 224 85 63 225 84 65 226 84 66 228 84 67 229 84 69 230 84 70 231 84 71 232 84 73 233 83 74 234 83 75 235 83 76 236 83 78 236 83 79 237 83 80 238 83 81 239 83 82 239 82 83 240 82 84 240 82 85 241 82 86 241 82 87 242 82 87 242 82 88 
73 51 120 76 51 119 79 51 118 82 52 117 85 52 116 88 52 114 91 53 112 93 53 110 96 53 108 99 54 105 101 54 103 103 54 99 105 54 96 107 55 92 109 55 88 110 55 84 111 55 79 112 55 74 112 56 69 111 56 63 0 0 0 58 26 30 104 55 44 99 54 37 89 38 16 80 41 14 68 50 19 40 44 23 65 84 55 67 84 53 69 84 51 71 84 50 0 0 0 0 0 0 0 0 0 0 0 0 0 0 0 26 45 37 19 47 53 18 48 65 19 49 75 21 50 83 24 51 90 28 51 97 33 51 102 39 52 107 44 52 111 0 0 0 19 43 95 0 0 0 0 0 0 0 0 0 0 0 0 0 0 0 0 0 0 0 0 0 0 0 0 0 0 0 0 0 0 0 0 0 46 23 60 0 0 0 0 0 0 111 47 104 0 0 0 0 0 0 0 0 0 0 0 0 0 0 0 0 0 0 0 0 0 0 0 0 0 0 0 0 0 0 0 0 0 221 83 60 223 83 61 224 83 63 225 83 64 227 83 66 228 83 67 229 83 69 230 83 70 231 82 71 232 82 73 233 82 74 234 82 75 235 82 76 236 82 77 237 82 78 237 82 80 238 82 81 239 82 82 239 81 83 240 81 84 241 81 85 241 81 86 242 81 86 242 81 87 242 81 88 
76 48 122 79 48 122 82 49 121 85 49 120 88 49 118 91 50 117 94 50 115 97 50 113 99 50 111 102 51 108 105 51 105 107 51 102 109 51 99 112 52 95 113 52 91 115 52 87 116 52 82 117 52 77 117 52 71 0 0 0 0 0 0 58 26 31 111 52 46 105 36 24 99 38 20 92 42 17 81 49 20 64 47 16 65 82 54 67 83 53 69 83 51 71 83 49 74 83 48 76 83 46 0 0 0 0 0 0 0 0 0 22 28 18 10 25 30 16 47 69 17 47 79 20 48 87 23 48 94 28 49 101 33 49 106 38 49 111 44 49 114 50 50 117 13 23 52 0 0 0 21 25 56 31 22 62 28 21 62 0 0 0 0 0 0 0 0 0 0 0 0 0 0 0 0 0 0 0 0 0 126 44 70 0 0 0 44 20 62 119 45 44 0 0 0 0 0 0 0 0 0 0 0 0 0 0 0 0 0 0 0 0 0 0 0 0 0 0 0 0 0 0 220 82 58 221 82 59 223 82 61 224 82 62 226 82 64 227 82 65 228 82 67 230 81 68 231 81 70 232 81 71 233 81 72 234 81 74 235 81 75 235 81 76 236 81 77 237 81 78 238 81 79 238 81 81 239 80 82 240 80 83 240 80 84 241 80 85 241 80 85 242 80 86 242 80 87 243 80 88 
78 46 124 81 46 123 84 46 123 87 46 121 90 47 120 93 47 119 96 47 117 99 47 115 102 47 113 105 48 110 108 48 107 110 48 104 113 48 101 115 48 97 117 49 93 119 49 89 120 49 84 121 49 79 15 11 3 44 20 8 0 0 0 119 49 55 57 19 17 112 37 30 107 40 26 101 48 27 91 47 21 76 46 16 50 43 17 67 81 52 69 81 51 71 81 49 73 81 47 76 81 46 79 81 44 81 82 42 0 0 0 44 30 28 25 30 46 14 45 72 16 45 82 19 45 90 22 46 97 27 46 103 32 46 109 38 47 113 44 47 117 50 47 120 10 9 29 0 0 0 0 0 0 0 0 0 18 21 57 0 0 0 0 0 0 0 0 0 0 0 0 56 19 54 0 0 0 0 0 0 0 0 0 0 0 0 0 0 0 122 43 48 0 0 0 0 0 0 0 0 0 0 0 0 0 0 0 0 0 0 0 0 0 0 0 0 0 0 0 218 81 56 220 81 58 221 81 59 223 81 61 225 80 62 226 80 64 227 80 65 229 80 67 230 80 68 231 80 70 232 80 71 233 80 72 234 80 74 235 80 75 236 80 76 236 80 77 237 80 78 238 80 79 238 79 80 239 79 81 240 79 82 240 79 83 241 79 84 241 79 85 242 79 86 242 79 87 243 79 88 
79 43 125 82 43 125 85 43 124 89 44 123 92 44 122 95 44 120 98 44 118 101 44 116 104 44 114 107 44 112 110 45 109 112 45 106 115 45 102 117 45 99 119 45 95 121 45 90 123 45 86 124 45 81 0 0 0 36 31 45 20 10 3 16 19 13 0 0 0 117 39 37 113 45 35 106 45 28 97 44 21 84 44 16 63 42 14 66 79 52 68 79 51 71 80 49 73 80 47 76 80 45 78 80 43 81 80 42 27 41 33 55 28 37 33 27 56 13 42 75 15 43 84 18 43 92 22 43 99 26 43 106 32 44 111 37 44 115 43 44 119 50 44 122 56 44 124 8 6 15 0 0 0 0 0 0 0 0 0 0 0 0 0 0 0 0 0 0 0 0 0 127 42 72 0 0 0 54 21 56 0 0 0 0 0 0 126 42 64 124 42 51 0 0 0 0 0 0 0 0 0 0 0 0 0 0 0 0 0 0 0 0 0 0 0 0 216 79 54 218 79 56 220 79 57 222 79 59 223 79 61 225 79 62 226 79 64 227 79 65 229 79 67 230 79 68 231 79 69 232 79 71 233 79 72 234 79 73 235 79 75 236 79 76 236 79 77 237 79 78 238 78 79 239 78 80 239 78 81 240 78 82 240 78 83 241 78 84 241 78 85 242 78 86 242 78 87 243 78 88 
80 41 126 83 41 126 86 41 125 89 41 124 93 41 122 96 41 121 99 41 119 102 41 117 105 41 115 108 41 113 111 41 110 114 41 107 116 41 103 119 41 100 121 42 96 123 42 91 124 42 87 47 24 58 8 13 25 5 2 7 0 1 1 12 9 4 18 20 12 37 24 9 116 42 36 110 41 29 101 41 22 88 41 16 69 40 13 66 78 52 68 78 50 71 78 49 73 78 47 76 78 45 78 78 43 81 78 42 39 21 7 60 24 43 36 23 61 13 40 76 0 0 0 18 40 93 22 41 101 26 41 107 31 41 112 37 41 117 43 41 120 50 41 123 56 41 125 63 41 127 0 0 0 0 0 0 0 0 0 0 0 0 0 0 0 0 0 0 0 0 0 0 0 0 0 0 0 0 0 0 0 0 0 0 0 0 127 40 65 125 40 52 0 0 0 0 0 0 0 0 0 0 0 0 0 0 0 0 0 0 212 78 50 214 78 52 216 78 54 218 78 56 220 78 57 222 78 59 223 78 60 225 78 62 226 78 64 228 78 65 229 78 67 230 78 68 231 78 69 232 78 71 233 78 72 234 77 73 235 77 75 236 77 76 237 77 77 237 77 78 238 77 79 239 77 80 239 77 81 240 77 82 240 77 83 241 77 84 241 77 85 242 77 86 242 77 87 243 77 88 
80 38 127 83 38 126 87 38 125 90 38 124 93 38 123 96 38 121 99 38 119 102 38 117 105 38 115 108 38 113 111 38 110 114 38 107 117 38 104 119 38 100 121 38 96 123 38 92 125 38 87 41 19 63 24 19 62 13 19 54 18 9 31 9 4 1 12 19 17 28 19 7 117 38 37 111 38 29 102 38 22 90 38 16 71 38 12 66 76 52 68 76 50 71 76 49 73 76 47 76 76 45 78 76 43 81 76 42 45 19 8 0 0 0 37 19 63 13 38 76 14 38 86 17 38 94 0 0 0 0 0 0 0 0 0 0 0 0 43 38 121 50 38 124 56 38 126 63 38 127 70 38 127 0 0 0 0 0 0 0 0 0 0 0 0 0 0 0 0 0 0 0 0 0 0 0 0 0 0 0 0 0 0 0 0 0 0 0 0 0 0 0 0 0 0 0 0 0 0 0 0 0 0 0 0 0 0 210 76 49 212 76 50 214 76 52 216 76 54 218 76 56 220 76 57 222 76 59 223 76 60 225 76 62 226 76 64 228 76 65 229 76 67 230 76 68 231 76 69 232 76 71 233 76 72 234 76 73 235 76 75 236 76 76 237 76 77 237 76 78 238 76 79 239 76 80 239 76 81 240 76 82 240 76 83 241 76 84 242 76 85 242 76 86 242 76 87 243 76 88 
40 18 63 41 18 63 43 19 62 45 19 62 46 19 61 48 19 60 49 19 60 51 19 59 52 19 57 54 19 56 55 19 55 57 20 53 58 20 52 59 20 50 60 20 48 61 20 46 62 20 43 23 11 29 15 12 29 9 13 26 6 4 15 4 3 1 9 12 8 18 12 4 58 20 18 55 20 14 50 20 10 44 19 7 69 35 13 66 75 52 68 75 50 71 75 49 73 75 47 76 75 45 78 75 43 81 75 42 19 10 3 30 12 21 18 11 31 13 36 76 15 35 85 18 35 93 10 18 50 13 18 53 0 0 0 0 0 0 0 0 0 0 0 0 0 0 0 0 0 0 0 0 0 0 0 0 0 0 0 0 0 0 0 0 0 0 0 0 0 0 0 0 0 0 0 0 0 0 0 0 0 0 0 0 0 0 0 0 0 0 0 0 0 0 0 0 0 0 0 0 0 0 0 0 208 75 47 210 75 49 212 75 50 214 75 52 216 75 54 218 75 56 220 75 57 222 75 59 223 75 60 225 75 62 226 75 64 228 75 65 229 75 67 230 75 68 231 75 69 232 75 71 233 75 72 234 75 73 235 75 75 236 75 76 237 75 77 237 75 78 238 75 79 239 75 80 239 75 81 240 75 82 240 75 83 241 75 84 241 75 85 242 75 86 242 75 87 243 75 88 
39 21 63 41 21 62 42 21 62 44 21 61 46 21 61 47 21 60 49 21 59 50 21 58 52 22 57 53 22 56 55 22 54 56 22 53 57 22 51 58 22 49 59 22 47 60 22 45 61 22 43 62 22 40 11 7 7 17 15 23 6 7 4 7 6 2 21 14 8 59 22 21 56 22 17 53 22 14 48 22 10 42 21 7 31 20 6 66 73 52 68 73 51 71 73 49 73 73 47 76 73 45 78 73 43 81 73 42 13 19 16 4 5 14 16 13 28 6 20 37 7 20 42 9 21 46 10 21 50 13 21 53 15 21 55 18 21 58 0 0 0 0 0 0 0 0 0 0 0 0 0 0 0 0 0 0 0 0 0 0 0 0 0 0 0 0 0 0 0 0 0 0 0 0 0 0 0 0 0 0 0 0 0 0 0 0 0 0 0 0 0 0 0 0 0 0 0 0 0 0 0 205 73 45 207 73 47 210 73 49 212 73 51 214 73 52 216 73 54 218 73 56 220 73 57 222 73 59 223 73 61 225 74 62 226 74 64 227 74 65 229 74 67 230 74 68 231 74 69 232 74 71 233 74 72 234 74 73 235 74 75 236 74 76 236 74 77 237 74 78 238 74 79 239 74 80 239 74 81 240 74 82 240 74 83 241 74 84 241 74 85 242 74 86 242 74 87 243 74 88 
38 22 62 40 22 62 42 22 61 43 23 61 45 23 60 46 23 59 48 23 58 49 23 57 51 23 56 52 23 55 53 24 54 55 24 52 56 24 50 57 24 49 58 24 47 59 24 44 60 24 42 60 24 39 14 5 12 2 1 3 0 0 0 5 2 1 58 24 24 56 24 20 54 24 17 50 24 13 45 23 10 38 22 7 25 21 8 67 72 52 34 36 25 35 37 24 36 37 23 37 37 22 39 38 21 40 38 21 16 20 13 10 6 2 12 15 23 7 22 36 7 22 41 9 22 45 11 22 49 13 22 52 16 22 54 18 23 57 21 23 59 25 23 60 0 0 0 0 0 0 0 0 0 0 0 0 0 0 0 0 0 0 0 0 0 0 0 0 0 0 0 0 0 0 0 0 0 0 0 0 0 0 0 0 0 0 0 0 0 0 0 0 0 0 0 0 0 0 101 38 21 102 37 22 104 37 23 105 37 24 106 36 25 214 72 52 216 72 54 218 72 56 220 72 58 221 72 59 223 72 61 225 72 62 226 72 64 227 72 65 229 72 67 230 72 68 231 73 70 232 73 71 233 73 72 234 73 74 235 73 75 236 73 76 236 73 77 237 73 78 238 73 79 238 73 80 239 73 81 240 73 82 240 73 83 241 73 84 241 73 85 242 73 86 242 73 87 243 74 88 
37 24 61 39 24 61 40 24 60 42 24 60 43 24 59 45 24 58 46 25 57 48 25 56 49 25 55 51 25 54 52 25 53 53 25 51 54 25 49 55 26 47 56 26 45 27 13 14 28 13 13 10 5 15 7 6 14 5 7 10 2 2 1 6 6 2 23 11 5 53 26 19 50 25 16 46 25 12 40 24 9 31 23 8 32 39 27 33 39 26 34 39 25 35 39 24 36 39 23 38 40 22 39 40 22 40 40 21 42 40 20 5 6 3 1 3 4 7 23 34 8 23 39 9 23 43 11 24 47 13 24 50 16 24 53 19 24 55 22 24 57 25 24 59 28 24 60 31 24 60 0 0 0 0 0 0 0 0 0 0 0 0 0 0 0 0 0 0 0 0 0 0 0 0 0 0 0 0 0 0 0 0 0 0 0 0 0 0 0 0 0 0 98 40 20 100 40 21 101 40 22 102 40 22 104 39 23 105 39 24 106 39 25 107 39 26 108 39 27 109 39 28 110 39 28 111 38 29 111 38 30 112 38 31 113 38 32 114 38 32 114 37 33 115 37 34 115 37 34 116 36 35 116 36 36 234 72 74 235 72 75 235 72 76 236 72 77 237 72 78 238 72 79 238 72 81 239 72 82 240 72 83 240 72 84 241 72 85 241 72 85 242 72 86 242 73 87 243 73 88 
36 25 60 38 25 60 39 25 59 41 25 59 42 26 58 43 26 57 45 26 56 46 26 55 47 26 54 49 26 53 50 27 51 51 27 50 52 27 48 53 27 46 54 27 44 55 27 42 20 12 29 10 10 30 2 4 12 1 0 1 5 9 10 13 11 4 51 27 21 49 27 18 45 27 15 40 26 12 33 25 9 20 21 11 32 40 27 33 40 26 34 40 25 35 41 24 36 41 23 38 41 23 39 41 22 40 41 21 42 41 20 12 22 18 0 0 0 3 6 12 9 24 37 10 25 41 12 25 45 14 25 48 16 25 51 19 25 53 22 26 55 25 26 57 28 26 58 31 26 58 35 26 59 38 26 58 0 0 0 0 0 0 0 0 0 0 0 0 0 0 0 0 0 0 0 0 0 0 0 0 0 0 0 0 0 0 0 0 0 57 22 18 98 41 20 99 41 21 101 41 22 102 41 23 103 41 23 105 41 24 106 40 25 107 40 26 108 40 27 109 40 28 110 40 29 111 40 29 111 40 30 112 40 31 113 39 32 114 39 32 114 39 33 115 39 34 115 39 35 116 39 35 116 39 36 117 38 36 117 38 37 118 38 38 118 38 38 118 38 39 119 38 39 119 37 40 119 37 40 120 37 41 120 37 41 120 36 42 241 71 86 242 72 86 242 72 87 242 72 88 
35 26 58 36 26 58 37 26 58 39 27 57 40 27 56 41 27 55 43 27 55 44 27 54 45 28 52 46 28 51 48 28 50 49 28 48 50 28 46 50 29 44 51 29 42 52 29 40 3 6 12 12 14 23 8 14 19 4 5 3 24 12 6 49 29 23 46 28 20 43 28 17 39 27 13 33 26 11 23 23 11 31 41 28 32 41 27 33 41 26 34 42 25 35 42 25 37 42 24 38 42 23 39 42 22 41 42 21 42 42 20 17 22 13 8 7 4 9 7 12 10 9 30 11 26 39 12 26 43 14 26 46 17 26 49 19 27 51 22 27 53 25 27 55 28 27 56 31 27 56 35 27 56 38 27 56 41 27 56 44 27 55 0 0 0 0 0 0 0 0 0 0 0 0 0 0 0 0 0 0 0 0 0 0 0 0 58 24 23 53 22 13 98 42 20 99 42 21 101 42 22 102 42 23 103 42 24 104 42 25 106 42 25 107 41 26 108 41 27 109 41 28 110 41 29 110 41 30 111 41 30 112 41 31 113 41 32 113 40 33 114 40 33 115 40 34 115 40 35 116 40 35 116 40 36 117 40 37 117 40 37 118 39 38 118 39 38 118 39 39 119 39 39 119 39 40 119 39 41 120 39 41 120 39 42 120 38 42 121 38 42 121 38 43 121 38 43 121 38 44 
33 27 57 34 27 56 35 27 56 37 28 55 38 28 54 39 28 54 40 28 53 42 29 52 43 29 50 44 29 49 45 29 48 46 29 46 46 30 44 47 30 42 48 30 40 48 30 38 48 30 36 7 6 3 22 13 6 22 12 5 21 11 4 43 29 21 40 29 18 36 28 15 31 27 12 21 24 12 30 42 29 31 42 28 32 42 27 33 42 27 34 43 26 36 43 25 37 43 24 38 43 23 39 43 22 41 43 22 42 43 21 44 43 20 14 24 19 2 1 2 11 5 15 12 26 36 13 27 40 15 27 43 17 28 46 20 28 48 22 28 50 25 28 52 28 28 53 32 28 53 35 28 54 38 28 53 41 28 53 44 28 52 47 28 50 50 28 48 0 0 0 0 0 0 46 61 62 0 0 0 0 0 0 58 25 26 56 24 19 96 43 20 97 43 21 99 43 22 100 43 22 102 43 23 103 43 24 104 43 25 105 43 26 106 42 27 107 42 27 108 42 28 109 42 29 110 42 30 111 42 31 112 42 31 113 42 32 113 41 33 114 41 33 114 41 34 115 41 35 116 41 35 116 41 36 117 41 37 117 40 37 117 40 38 118 40 38 118 40 39 119 40 40 119 40 40 119 40 41 120 40 41 120 40 42 120 39 42 120 39 43 121 39 43 121 39 43 121 39 44 
31 28 54 32 28 54 33 28 54 34 29 53 35 29 52 37 29 51 38 29 50 39 30 49 40 30 48 41 30 47 42 30 45 42 30 44 43 31 42 43 31 40 44 31 38 44 31 35 43 31 33 20 13 6 19 12 5 19 12 4 39 30 22 36 29 19 33 28 16 27 27 14 16 22 14 30 43 30 31 43 29 32 43 28 33 43 28 34 43 27 35 43 26 36 44 25 37 44 24 38 44 24 40 44 23 41 44 22 43 44 21 44 44 21 21 22 11 12 5 2 6 3 7 21 13 28 14 28 37 16 28 40 18 28 43 20 29 45 23 29 47 26 29 49 29 29 50 32 29 50 35 29 51 38 29 50 41 29 50 44 29 49 46 29 47 49 29 45 51 28 43 54 28 40 0 0 0 56 27 32 57 26 28 56 25 22 48 22 11 96 44 21 97 44 21 99 44 22 100 44 23 102 44 24 103 44 24 104 44 25 105 43 26 106 43 27 107 43 28 108 43 28 109 43 29 110 43 30 111 43 31 112 42 32 112 42 32 113 42 33 114 42 34 114 42 34 115 42 35 115 42 36 116 42 36 116 41 37 117 41 37 117 41 38 118 41 39 118 41 39 118 41 40 119 41 40 119 41 41 119 40 41 120 40 42 120 40 42 120 40 43 121 40 43 121 40 43 121 40 44 
28 29 52 29 29 51 30 29 51 32 29 50 33 30 50 34 30 49 35 30 48 36 30 47 36 31 45 37 31 44 38 31 42 38 31 41 39 31 39 39 31 37 39 31 35 26 14 18 0 0 0 2 5 5 11 5 2 28 10 8 25 10 5 19 11 3 22 26 15 28 43 32 29 43 31 30 44 30 31 44 30 32 44 29 33 44 28 34 44 27 35 44 26 36 44 26 37 45 25 39 45 24 40 45 23 41 45 23 43 45 22 44 45 21 46 45 20 18 25 15 26 11 7 27 14 19 15 28 32 17 29 36 19 29 39 21 30 42 23 30 43 26 30 45 29 30 46 32 30 47 35 30 47 38 30 47 41 30 46 43 30 45 46 30 43 48 30 42 51 29 39 53 29 36 54 28 32 55 27 28 54 26 23 51 25 15 94 45 20 95 45 21 97 45 22 98 45 23 100 45 23 101 45 24 103 45 25 104 44 26 105 44 26 106 44 27 107 44 28 108 44 29 109 44 30 110 44 30 111 43 31 111 43 32 112 43 32 113 43 33 113 43 34 114 43 35 115 43 35 115 42 36 116 42 36 116 42 37 117 42 38 117 42 38 118 42 39 118 42 39 118 42 40 119 41 40 119 41 41 119 41 41 120 41 42 120 41 42 120 41 43 120 41 43 121 41 44 121 41 44 
25 29 49 26 29 48 28 30 48 28 30 47 29 30 47 30 30 46 31 31 45 32 31 44 33 31 42 18 15 23 23 13 26 26 12 27 28 11 26 29 10 24 15 4 11 3 1 3 1 1 2 4 2 0 13 6 4 11 6 2 7 5 1 27 44 33 28 44 33 29 44 32 29 44 31 30 44 31 31 44 30 32 45 29 33 45 28 34 45 28 35 45 27 36 45 26 38 45 25 39 46 25 40 46 24 42 46 23 43 46 22 45 46 22 46 46 21 48 46 20 19 26 16 15 17 14 17 28 28 18 29 32 20 30 35 22 30 37 24 30 39 27 31 41 29 31 42 32 31 43 35 31 43 5 3 7 40 31 42 43 31 41 45 30 39 48 30 37 50 30 35 51 29 32 52 28 28 25 10 6 50 26 16 92 46 20 94 46 21 95 46 22 97 46 22 98 46 23 100 46 24 101 46 25 102 45 25 103 45 26 105 45 27 106 45 28 107 45 28 108 45 29 109 44 30 109 44 31 110 44 31 111 44 32 112 44 33 113 44 33 113 44 34 114 43 35 114 43 35 115 43 36 115 43 37 116 43 37 116 43 38 117 43 38 117 42 39 118 42 39 118 42 40 118 42 40 119 42 41 119 42 41 119 42 42 120 42 42 120 42 43 120 41 43 121 41 44 121 41 44 
22 29 45 23 30 45 24 30 44 25 30 44 26 30 43 14 14 26 17 12 30 19 11 31 21 10 31 11 4 15 12 5 14 13 5 13 13 6 12 13 6 11 13 7 10 6 3 2 3 1 0 6 2 1 3 3 1 26 44 35 27 44 34 28 44 34 28 45 33 29 45 32 30 45 32 31 45 31 32 45 30 32 45 30 33 46 29 34 46 28 36 46 27 37 46 27 38 46 26 39 46 25 40 47 24 42 47 24 43 47 23 45 47 22 46 47 22 48 47 21 50 47 20 21 26 15 18 17 12 8 11 6 21 30 30 23 30 32 25 31 34 27 31 36 30 31 37 5 7 11 7 7 12 9 7 11 11 7 10 12 7 7 21 14 7 22 13 7 23 12 6 24 12 5 24 10 5 48 26 15 90 47 20 92 47 21 93 47 22 95 47 22 96 47 23 98 47 24 99 47 24 101 46 25 102 46 26 103 46 27 104 46 27 105 46 28 106 46 29 107 45 30 108 45 30 109 45 31 110 45 32 111 45 32 112 45 33 112 44 34 113 44 34 114 44 35 114 44 36 115 44 36 115 44 37 116 44 37 116 43 38 117 43 39 117 43 39 118 43 40 118 43 40 118 43 41 119 43 41 119 42 42 119 42 42 120 42 43 120 42 43 120 42 43 120 42 44 121 42 44 
19 29 41 20 29 41 9 13 26 11 11 29 12 10 31 7 4 15 7 5 15 8 6 15 9 6 14 9 6 14 10 7 13 6 3 7 3 1 3 3 1 2 0 0 0 0 0 0 3 5 4 13 18 16 7 10 7 7 10 7 8 10 6 16 18 13 15 20 13 29 45 33 30 46 32 31 46 31 32 46 31 33 46 30 34 46 29 35 46 28 36 47 28 37 47 27 38 47 26 39 47 26 41 47 25 42 47 24 44 48 24 45 48 23 47 48 22 48 48 22 50 48 21 52 48 20 26 25 11 22 28 19 2 2 7 3 11 20 5 10 24 7 10 28 10 10 30 14 10 31 17 10 31 21 10 31 24 10 30 27 10 28 29 10 24 31 11 20 30 11 15 22 9 4 44 25 11 88 48 20 90 48 21 91 48 22 93 48 22 95 48 23 96 48 24 98 47 24 99 47 25 100 47 26 102 47 26 103 47 27 104 47 28 105 46 28 106 46 29 107 46 30 108 46 31 109 46 31 110 46 32 110 45 33 111 45 33 112 45 34 113 45 35 113 45 35 114 45 36 114 44 36 115 44 37 115 44 38 116 44 38 116 44 39 117 44 39 117 44 40 118 43 40 118 43 41 118 43 41 119 43 42 119 43 42 119 43 43 120 43 43 120 43 43 120 42 44 121 42 44 
6 12 22 6 10 25 6 9 27 3 5 13 4 5 14 5 6 13 5 6 13 6 7 12 3 2 7 1 1 3 1 0 1 0 0 0 0 0 0 6 11 9 1 2 2 1 1 0 1 1 0 2 3 1 3 2 1 6 5 2 11 12 6 12 12 5 12 12 5 12 11 4 11 10 4 20 20 10 32 47 31 33 47 30 34 47 30 35 47 29 36 47 28 37 47 28 39 48 27 40 48 26 41 48 25 43 48 25 44 48 24 46 49 24 47 49 23 49 49 22 50 49 22 52 49 21 54 49 21 56 49 20 3 5 3 0 0 0 2 6 10 3 6 12 5 6 13 7 6 14 8 6 14 10 6 14 12 6 13 13 6 12 14 6 10 15 5 7 14 5 3 84 49 20 86 49 21 88 49 21 89 49 22 91 49 22 93 49 23 94 49 24 96 48 24 97 48 25 99 48 25 100 48 26 101 48 27 102 47 28 104 47 28 105 47 29 106 47 30 107 47 30 108 47 31 109 46 32 109 46 32 110 46 33 111 46 34 112 46 34 112 46 35 113 45 36 114 45 36 114 45 37 115 45 37 115 45 38 116 45 38 116 44 39 117 44 39 117 44 40 117 44 40 118 44 41 118 44 41 119 44 42 119 44 42 119 43 43 119 43 43 120 43 44 120 43 44 120 43 44 
11 26 29 3 11 17 3 9 18 1 5 9 1 5 9 2 5 8 2 5 7 11 22 21 22 44 42 4 10 11 1 2 2 0 0 0 0 0 0 0 0 0 0 0 0 0 0 0 1 0 0 2 1 0 5 3 1 5 2 0 9 5 1 15 13 6 16 13 5 16 12 4 15 11 4 15 10 3 26 19 7 33 47 31 34 48 30 36 48 29 37 48 29 38 48 28 39 48 27 40 49 27 42 49 26 43 49 25 44 49 25 46 49 24 47 49 24 49 50 23 51 50 23 52 50 22 54 50 22 56 50 21 10 9 5 10 11 6 4 5 3 0 0 0 0 1 3 1 1 3 2 1 3 2 1 3 3 1 3 3 1 2 12 5 3 24 11 6 24 9 5 84 50 21 86 50 22 87 50 22 89 50 23 91 50 23 92 49 24 94 49 24 95 49 25 97 49 25 98 49 26 100 49 27 101 48 27 102 48 28 103 48 29 104 48 29 105 48 30 106 47 31 107 47 31 108 47 32 109 47 33 110 47 33 111 47 34 111 46 35 112 46 35 113 46 36 113 46 36 114 46 37 114 46 38 115 45 38 115 45 39 116 45 39 116 45 40 117 45 40 117 45 41 118 44 41 118 44 42 118 44 42 119 44 42 119 44 43 119 44 43 120 44 44 120 44 44 120 43 45 
20 44 45 20 44 45 20 44 44 20 44 44 21 44 44 21 44 43 4 9 11 4 11 12 0 2 3 0 0 1 0 0 0 0 0 0 0 0 0 0 0 0 0 0 0 0 0 0 3 1 1 6 3 2 6 3 1 12 4 2 10 6 3 18 14 7 19 13 6 19 13 5 19 12 4 18 11 3 17 10 3 29 20 7 35 48 31 36 48 30 37 49 29 38 49 29 39 49 28 41 49 27 42 49 27 43 50 26 45 50 25 46 50 25 48 50 24 49 50 24 51 50 23 53 51 23 55 51 22 8 9 6 8 11 7 9 12 8 1 2 2 1 0 0 0 0 0 0 0 0 0 0 0 0 0 0 1 0 1 3 1 1 7 2 2 25 12 8 26 11 7 26 9 6 85 51 22 87 51 23 89 50 23 90 50 24 92 50 24 94 50 25 95 50 25 97 50 26 98 49 27 99 49 27 100 49 28 102 49 29 103 49 29 104 48 30 105 48 31 106 48 31 107 48 32 108 48 32 109 47 33 109 47 34 110 47 34 111 47 35 112 47 36 112 47 36 113 46 37 113 46 37 114 46 38 115 46 38 115 46 39 116 46 39 116 45 40 116 45 40 117 45 41 117 45 41 118 45 42 118 45 42 118 45 43 119 44 43 119 44 44 119 44 44 120 44 44 120 44 45 
20 44 45 20 44 45 20 45 44 21 45 44 4 10 12 4 11 13 1 4 7 1 3 4 0 0 1 0 0 1 0 0 1 1 0 1 1 0 1 1 0 1 0 0 0 0 0 0 1 1 1 7 2 3 14 4 5 13 6 4 21 14 9 21 14 8 22 13 7 22 13 6 22 12 5 21 11 4 20 10 3 36 19 6 27 22 8 36 49 30 37 49 30 39 49 29 40 50 29 41 50 28 42 50 27 44 50 27 45 50 26 47 51 26 48 51 25 50 51 25 51 51 24 53 51 24 15 19 13 7 11 8 7 12 9 8 13 10 1 0 0 2 1 3 0 0 1 0 0 1 1 0 1 1 0 1 1 0 1 7 3 4 7 2 3 26 13 10 27 12 9 27 11 8 54 19 13 87 51 24 88 51 24 90 51 25 92 51 25 93 51 26 95 50 26 96 50 27 98 50 27 99 50 28 100 50 29 101 49 29 102 49 30 103 49 30 105 49 31 106 49 32 106 48 32 107 48 33 108 48 34 109 48 34 110 48 35 111 48 35 111 47 36 112 47 36 113 47 37 113 47 38 114 47 38 114 46 39 115 46 39 115 46 40 116 46 40 116 46 41 117 46 41 117 45 42 117 45 42 118 45 42 118 45 43 118 45 43 119 45 44 119 45 44 119 45 44 120 44 45 
20 45 45 20 45 45 3 10 13 4 11 14 5 12 15 0 2 4 1 3 5 2 3 6 1 1 3 1 1 3 2 1 3 2 1 3 5 3 6 6 3 5 7 3 5 0 0 1 0 0 0 1 1 0 5 2 1 10 5 2 23 14 11 24 14 9 24 13 8 24 13 7 24 12 6 23 11 5 22 10 4 40 19 6 33 22 7 37 50 31 38 50 30 39 50 30 40 50 29 41 50 29 43 51 28 44 51 27 45 51 27 47 51 26 48 51 26 50 51 25 52 52 25 15 20 14 6 10 9 6 12 10 7 13 11 3 5 3 0 2 4 1 3 5 2 3 6 1 1 3 2 1 3 2 1 3 6 3 6 7 3 5 7 2 4 13 5 3 13 5 3 28 12 10 28 10 9 55 20 14 88 52 25 90 51 25 91 51 26 93 51 26 94 51 27 96 51 27 97 51 28 98 50 29 100 50 29 101 50 30 102 50 30 103 50 31 104 49 32 105 49 32 106 49 33 107 49 33 108 49 34 109 48 34 109 48 35 110 48 36 111 48 36 112 48 37 112 48 37 113 47 38 113 47 38 114 47 39 114 47 39 115 47 40 115 46 40 116 46 41 116 46 41 117 46 42 117 46 42 117 46 43 118 46 43 118 45 43 119 45 44 119 45 44 119 45 45 119 45 45 
3 10 14 3 11 15 4 12 16 5 13 17 1 2 5 1 2 6 2 3 6 2 3 7 3 3 7 4 3 7 5 3 7 6 3 6 6 3 6 7 2 6 7 2 5 1 1 3 1 1 1 10 6 3 11 6 2 11 6 2 12 5 2 26 13 11 26 13 9 26 12 8 26 11 7 25 10 6 24 9 4 44 20 7 37 22 7 37 50 31 38 50 31 39 51 30 41 51 30 42 51 29 43 51 29 44 51 28 46 52 28 47 52 27 49 52 27 50 52 26 16 22 14 5 9 9 5 11 11 12 4 2 5 2 1 8 14 15 1 5 10 1 2 6 2 3 6 3 3 7 4 3 7 5 3 7 6 3 6 7 2 6 15 5 10 13 6 3 28 13 14 29 12 12 29 11 11 29 9 9 53 22 14 89 52 26 91 52 27 93 52 27 94 52 28 95 51 28 97 51 29 98 51 29 99 51 30 100 51 30 102 50 31 103 50 31 104 50 32 105 50 33 106 50 33 107 49 34 107 49 34 108 49 35 109 49 35 110 49 36 110 48 37 111 48 37 112 48 38 112 48 38 113 48 39 114 47 39 114 47 40 115 47 40 115 47 41 116 47 41 116 47 41 116 46 42 117 46 42 117 46 43 118 46 43 118 46 44 118 46 44 119 46 44 119 45 45 119 45 45 
4 11 16 5 12 17 6 13 18 2 5 11 1 2 6 2 2 7 3 2 7 3 2 7 4 2 7 5 2 7 6 2 7 6 2 7 14 5 13 14 5 12 13 7 10 22 15 17 23 15 17 11 6 3 3 2 0 3 2 0 7 6 3 10 6 2 28 12 10 28 12 9 27 11 8 27 10 6 51 19 11 46 21 9 39 23 8 22 25 13 39 51 31 40 51 31 41 51 30 42 52 30 43 52 29 45 52 29 46 52 28 48 52 28 49 52 27 51 53 27 11 20 18 4 10 11 5 3 2 0 1 1 11 7 9 8 14 17 3 6 10 3 5 13 2 2 7 3 2 7 4 2 7 5 2 7 6 2 7 14 5 13 14 6 10 27 14 17 28 13 16 29 12 14 30 11 13 30 10 11 58 20 18 89 53 27 91 52 27 92 52 28 94 52 28 95 52 29 96 52 29 98 52 30 99 51 30 100 51 31 101 51 31 102 51 32 103 51 33 104 50 33 105 50 34 106 50 34 107 50 35 108 50 35 109 49 36 109 49 36 110 49 37 111 49 37 111 49 38 112 48 38 113 48 39 113 48 39 114 48 40 114 48 40 115 47 41 115 47 41 116 47 42 116 47 42 116 47 43 117 47 43 117 46 43 118 46 44 118 46 44 118 46 45 119 46 45 119 46 45 
5 12 19 6 13 19 7 14 20 3 5 13 4 5 14 5 4 15 7 4 15 8 4 15 10 5 15 11 5 15 12 6 14 12 6 13 20 15 20 21 15 20 22 15 19 24 15 18 25 15 18 7 2 2 3 1 0 6 2 1 1 2 2 3 2 1 29 12 11 29 11 10 28 10 8 55 18 15 52 20 12 47 22 10 39 24 9 38 51 33 39 51 32 40 52 31 41 52 31 43 52 30 44 52 30 45 52 29 47 53 29 48 53 28 49 53 28 14 23 17 3 5 3 1 1 0 0 1 2 14 5 12 7 7 11 8 14 19 9 14 19 4 6 12 5 5 14 6 5 15 8 5 15 10 5 15 12 5 14 13 6 12 25 14 19 27 14 19 28 13 17 29 12 16 30 11 15 31 10 13 60 19 22 55 23 17 90 53 28 92 53 28 93 53 29 95 52 29 96 52 30 97 52 30 98 52 31 100 52 31 101 51 32 102 51 33 103 51 33 104 51 34 105 51 34 106 50 35 107 50 35 107 50 36 108 50 36 109 50 37 110 49 37 110 49 38 111 49 38 112 49 39 112 49 39 113 48 40 113 48 40 114 48 41 114 48 41 115 48 42 115 48 42 116 47 42 116 47 43 117 47 43 117 47 44 117 47 44 118 47 44 118 46 45 118 46 45 119 46 45 
6 13 21 7 13 21 9 14 22 10 14 22 5 6 13 6 6 14 7 6 14 8 7 13 16 15 23 18 15 22 19 15 22 20 15 22 22 15 21 23 15 21 24 15 20 25 14 19 1 3 5 4 6 13 2 4 11 1 0 1 2 3 3 5 3 1 30 11 12 30 10 11 59 18 19 56 20 16 53 21 13 47 23 11 39 25 10 38 52 33 40 52 33 41 52 32 42 52 32 43 53 31 44 53 31 46 53 30 47 53 30 48 53 29 50 53 29 16 9 3 4 3 1 0 0 0 5 3 6 10 5 15 6 13 19 8 14 20 9 14 21 11 15 22 13 15 22 1 1 3 1 1 3 3 1 3 7 2 4 23 15 22 25 14 21 27 14 20 28 13 19 29 12 18 30 12 16 31 10 14 62 18 25 59 21 20 90 53 29 91 53 29 93 53 30 94 53 30 95 53 31 97 53 31 98 52 32 99 52 32 100 52 33 101 52 33 102 52 34 103 51 34 104 51 35 105 51 35 106 51 36 107 50 36 108 50 37 109 50 37 109 50 38 110 50 38 111 49 39 111 49 39 112 49 40 112 49 40 113 49 40 114 49 41 114 48 41 115 48 42 115 48 42 115 48 43 116 48 43 116 48 43 117 47 44 117 47 44 117 47 45 118 47 45 118 47 45 118 47 46 
8 13 22 9 14 23 10 14 23 11 14 23 13 14 24 14 15 24 15 15 24 17 15 24 18 15 24 19 15 23 21 15 23 22 15 23 23 14 22 24 14 22 25 14 21 27 14 20 9 6 14 5 4 15 2 3 6 3 3 5 0 0 0 31 11 14 10 7 4 9 6 2 59 20 20 57 21 17 53 23 14 47 25 12 36 26 11 39 52 34 40 52 33 41 53 33 42 53 32 43 53 32 45 53 31 46 53 31 47 54 30 49 54 30 15 24 18 12 6 3 0 0 0 0 0 1 3 2 7 5 12 19 6 13 21 8 13 22 9 14 23 11 14 23 13 15 24 15 15 24 3 2 7 5 2 7 21 15 24 23 14 23 25 14 23 27 13 22 28 13 21 29 12 19 30 11 18 31 10 16 31 9 14 61 21 24 55 24 18 91 54 30 92 54 30 94 53 31 95 53 31 96 53 32 98 53 32 96 38 19 98 38 19 99 38 20 100 37 21 101 37 21 102 37 22 105 51 36 106 51 36 107 51 37 107 51 37 108 51 38 109 50 38 110 50 38 110 50 39 111 50 39 111 50 40 112 49 40 113 49 41 113 49 41 114 49 42 114 49 42 115 48 42 115 48 43 115 48 43 116 48 44 116 48 44 117 48 44 117 47 45 117 47 45 118 47 45 118 47 46 
9 14 24 10 14 24 12 14 25 13 14 25 14 14 25 15 14 25 17 14 25 18 14 25 19 14 25 21 14 24 22 14 24 23 14 24 24 14 23 26 14 23 27 13 22 28 13 21 12 6 14 5 2 7 5 3 6 1 0 1 1 1 2 3 3 1 4 6 4 5 5 2 22 11 4 56 23 18 52 24 15 44 26 13 32 27 13 39 53 34 40 53 34 41 53 33 43 53 33 44 53 32 45 54 32 46 54 31 48 54 31 49 54 31 20 12 4 0 1 1 2 1 3 1 5 9 4 11 19 5 12 21 6 13 22 8 13 23 9 14 24 11 14 24 13 14 25 15 14 25 17 14 25 19 14 25 21 14 25 23 14 24 25 14 24 26 13 23 28 13 22 29 12 21 30 11 19 31 10 17 31 9 15 62 20 27 58 23 21 88 38 15 90 38 16 91 37 16 92 37 17 94 37 17 95 37 18 96 37 19 97 37 19 98 37 20 99 37 20 100 37 21 101 37 22 104 52 36 105 52 37 106 51 37 107 51 37 108 51 38 108 51 38 109 51 39 110 50 39 110 50 40 111 50 40 112 50 41 112 50 41 113 49 41 113 49 42 114 49 42 114 49 43 115 49 43 115 49 43 116 48 44 116 48 44 116 48 45 117 48 45 117 48 45 117 48 46 118 47 46 
11 14 25 12 14 25 13 14 26 14 14 26 15 14 26 17 14 26 18 14 26 19 14 26 21 14 26 22 14 25 23 14 25 24 14 24 25 13 24 27 13 23 28 13 23 29 12 22 29 12 21 30 11 20 31 11 19 4 2 7 5 7 10 0 0 0 2 5 5 9 11 6 28 11 10 55 24 19 49 26 16 41 27 14 39 53 35 40 53 35 41 53 34 42 53 34 43 54 33 44 54 33 46 54 33 47 54 32 48 54 32 49 55 31 29 10 10 2 1 3 4 6 11 3 10 19 4 11 20 5 12 22 6 12 23 8 13 24 10 13 25 11 14 26 13 14 26 15 14 26 17 14 26 19 14 26 21 14 26 23 14 26 25 13 25 26 13 24 28 12 23 29 12 22 30 11 20 31 10 19 63 18 34 63 20 30 60 23 24 88 37 15 89 37 16 90 37 16 92 37 17 93 37 17 94 37 18 95 37 18 96 37 19 98 37 19 99 37 20 100 37 21 103 52 36 104 52 37 105 52 37 106 52 37 106 52 38 107 51 38 108 51 39 109 51 39 109 51 40 110 51 40 111 50 41 111 50 41 112 50 41 112 50 42 113 50 42 113 49 43 114 49 43 114 49 43 115 49 44 115 49 44 116 49 44 116 48 45 116 48 45 117 48 45 117 48 46 117 48 46 
12 13 26 13 14 27 14 14 27 15 14 27 17 14 27 18 14 27 19 14 27 21 14 27 22 14 26 23 13 26 24 13 26 25 13 25 26 13 25 27 12 24 28 12 23 29 12 22 30 11 21 31 11 20 13 6 12 6 7 13 3 6 11 3 1 1 4 6 4 12 9 4 56 18 16 52 18 11 45 18 8 34 19 6 37 39 23 38 39 22 39 39 21 40 39 21 41 39 20 42 39 19 44 39 19 45 39 18 46 39 17 14 20 14 0 0 0 12 6 13 6 18 36 3 10 20 4 11 22 5 12 23 6 12 24 8 13 25 10 13 26 11 13 27 13 13 27 15 13 27 17 14 27 19 13 27 21 13 27 23 13 27 25 13 26 26 13 25 28 12 24 29 12 23 30 11 22 31 10 20 63 18 36 63 20 32 61 22 27 53 18 12 89 37 15 90 36 16 91 36 16 92 36 17 94 36 18 95 36 18 96 36 19 97 36 19 98 36 20 99 36 20 103 53 37 103 53 37 104 52 37 105 52 38 106 52 38 107 52 39 108 52 39 108 51 40 109 51 40 110 51 40 110 51 41 111 51 41 111 50 42 112 50 42 112 50 42 113 50 43 113 50 43 114 50 44 114 49 44 115 49 44 115 49 45 116 49 45 116 49 45 116 48 46 117 48 46 117 48 46 
