P3
10 5
255
51 98 87 63 102 78 77 105 69 80 100 58 138 112 58 50 43 17 196 107 67 212 102 71 226 99 81 234 93 85 
67 60 99 91 61 83 67 94 60 80 90 48 23 52 78 95 58 43 200 95 51 216 88 58 233 91 80 239 84 83 
99 42 119 57 23 50 90 43 17 77 74 44 13 21 52 35 26 59 0 0 0 223 77 60 236 78 76 242 78 86 
48 28 51 2 2 6 15 13 6 41 46 24 23 28 17 0 0 0 93 49 23 106 47 30 118 40 39 119 43 42 
0 0 0 24 14 23 4 2 0 47 52 27 3 11 19 22 14 24 101 49 29 109 48 35 113 48 40 119 45 44 
